<svg xmlns="http://www.w3.org/2000/svg" width="582" height="402"><rect id="backgroundrect" width="100%" height="100%" x="0" y="0" fill="none" stroke="none"/><g><title>background</title><rect id="canvas_background" width="584" height="404" x="-1" y="-1" fill="none"/></g><g class="currentLayer"><title>Layer 1</title><path id="svg_2" fill="#fff" fill-opacity="1" stroke="#fff" stroke-opacity="1" d="m268.37036895751953,17.296296417713165 l-8,2 l-3,0 l-2,1 l-4,1 l-4,0 l-6,2 l-2,0 l-4,2 l-1,0 l-2,1 l-3,1 l-2,0 l-2,1 l-2,0 l-2,2 l-3,0 l-2,1 l0,1 l-2,0 a190,190 0 0 0 -29,16 l-2,1 l-4,3 l-2,1 l-2,2 l-2,1 l-2,2 l-3,2 a97,97 0 0 0 -9,9 l-1,1 l-4,2 l-11,14 l-2,2 l-3,4 l-3,3 l-2,4 l-4,6 l-2,4 l-1,0 l-1,1 l0,2 l-1,1 l-1,2 l-1,1 a70,70 0 0 1 -3,6 l-1,4 c0,2 -2,3 -2,3 l0,1 l-2,2 l0,2 l-11,38 l0,4 l-1,5 l-2,16 l0,14 l1,9 l9,42 l2,4 l1,3 l0,2 l1,1 l0,2 l2,4 l1,1 l2,4 l0,1 l1,1 l0,1 l2,4 l2,2 l0,1 l1,2 l2,3 l0,1 l1,1 l2,4 l1,1 l1,2 l2,1 l2,4 l1,1 l4,5 l1,2 l12,13 a97,97 0 0 0 13,12 l2,1 l1,2 l1,0 l2,2 l30,19 a102,102 0 0 0 17,8 l1,0 l4,2 l2,0 l2,1 l1,0 l4,2 l3,0 l3,1 l2,1 l2,0 l7,2 l17,3 l56,-2 l3,-1 l3,0 l3,-1 l3,0 l3,-1 l2,-1 l3,0 l6,-2 l2,-1 l1,-1 l2,0 l2,-1 l2,0 l1,-1 l2,-1 l1,0 l10,-5 l5,-2 l1,-1 l19,-11 l2,-2 a125,125 0 0 0 10,-7 l20,-18 l2,-3 l7,-8 l3,-3 l2,-4 l1,-1 l1,-2 a48,48 0 0 0 6,-9 l1,-2 l2,-2 l14,-31 l2,-5 l1,-1 l0,-2 l1,-3 l0,-2 l2,-5 l0,-2 l1,-3 l0,-3 l1,-3 l3,-24 l0,-11 a130,130 0 0 0 -4,-33 l0,-3 l-1,-2 l0,-3 l-1,-3 l-1,-2 l0,-2 l-1,-2 l0,-3 l-4,-9 l0,-2 l-1,-1 l-1,-2 l0,-2 l-1,-1 l-1,-2 c-1,-1 0,0 0,0 l-1,-3 l-2,-4 l-1,-1 l0,-1 l-1,-3 l-2,-2 l0,-1 l-1,-1 l0,-1 l-1,-1 l-1,-2 l-2,-2 l0,-2 l-1,-1 l-1,-2 l-1,-1 l-1,-2 l-3,-3 l-1,-2 l-2,-2 a66,66 0 0 0 -5,-7 l-15,-15 a50,50 0 0 0 -11,-10 l-10,-9 l-1,0 l-1,-1 l-4,-2 l-5,-4 l-1,0 l-2,-1 l-2,-2 l-8,-3 l-4,-3 l-2,-1 l-2,0 l-1,-1 l-1,0 l-8,-4 l-2,0 l-4,-2 l-1,0 l-2,-1 l-3,0 l-2,-1 l-1,-1 l-2,0 l-6,-2 l-2,0 l-6,-2 l-5,0 l-4,-1 l-3,0 l-5,-1 l-21,-1 a605,605 0 0 1 -21,0 m39,8 l51,13 l2,1 l1,1 l1,0 l2,1 l1,0 l32,19 l4,4 l3,1 a112,112 0 0 1 13,12 l5,5 l2,3 a97,97 0 0 1 17,21 l1,1 l3,5 c2,2 2,5 2,5 l1,1 l4,8 l3,4 l0,1 l1,2 l0,1 l1,2 l0,2 l2,2 l0,1 l1,2 l1,3 l0,2 l1,1 l1,2 l0,2 l1,2 l0,2 l1,2 l1,3 l0,3 l1,2 l0,3 l3,12 a243,243 0 0 1 -3,59 l-1,3 l0,3 l-4,10 l0,3 l-3,8 l-1,1 l0,1 l-1,2 l0,2 l-1,1 l0,2 a74,74 0 0 0 -6,12 l-2,2 l0,1 l-4,6 l-1,2 l-11,15 a235,235 0 0 1 -50,44 l-3,2 l-1,0 l-2,1 l-1,1 l-14,7 l-30,10 l-4,0 l-3,1 l-4,1 l-3,0 l-10,2 a271,271 0 0 1 -71,-6 l-7,-3 l-4,0 l-2,-1 l-1,-1 l-7,-2 l-2,-2 l-1,0 l-2,-1 l-1,0 l-1,-1 l-2,-1 l-1,0 l-5,-3 l-1,0 l-1,-1 l-5,-3 l-1,0 l-6,-4 l-1,-1 l-1,0 l-1,-1 l-3,-2 l-3,-3 a103,103 0 0 1 -18,-15 l-8,-8 l-3,-4 l-3,-3 l-20,-29 l0,-2 l-1,-1 l0,-1 a21,21 0 0 1 -4,-8 a49,49 0 0 1 -5,-12 l-3,-6 l-1,-7 l-1,-2 l0,-2 l-1,-2 l-1,-4 l0,-4 l-1,-3 l0,-3 l-1,-3 l-1,-8 l0,-31 l8,-38 l1,-2 l0,-3 l1,-2 l0,-2 l2,-2 l0,-2 l1,-1 l0,-2 l1,-2 l0,-1 l2,-2 l1,-4 a59,59 0 0 1 7,-11 l5,-9 l4,-6 l2,-2 l1,-2 l3,-3 c2,-1 2,-3 2,-3 l1,-2 l19,-19 l8,-6 l1,-2 l1,0 l2,-2 l4,-2 l4,-4 l37,-18 l2,0 l5,-2 l1,-1 l3,-1 l2,0 l2,-1 l3,0 l2,-1 l26,-5 l38,0 m30,21 l-1,2 l-1,1 l-1,2 l0,3 l-2,0 l-2,-1 c-1,-1 -2,0 -2,2 s1,4 3,4 c1,0 1,2 -1,6 l-1,2 l0,1 l-2,4 l0,2 l-1,1 l0,2 l-1,2 l1,4 l1,1 c0,3 3,2 3,-1 l0,-1 l1,-2 l0,-2 l1,-1 l1,-2 l0,-2 l1,-2 l0,-2 l2,-2 l0,-2 l1,-2 l4,0 l6,2 l1,1 l2,0 l1,1 l2,1 l2,0 l4,2 l4,3 l-2,4 l-7,-7 l-2,0 l-5,-1 l-3,3 l-2,1 l0,4 l1,6 l4,4 l1,0 l3,1 c4,0 5,1 3,3 l0,3 l1,1 l2,3 l0,-1 l2,-2 l0,-2 l2,-2 l0,-2 l3,-5 l0,-1 l2,-2 l2,-5 c0,-1 7,2 9,4 l1,1 c2,0 2,2 1,4 c-4,4 -4,5 -6,4 l-3,0 l0,3 l2,9 l1,-1 l3,0 l2,1 l3,3 l-2,2 c-3,3 -3,4 -2,5 c2,1 1,2 -2,2 l-2,0 l0,5 l2,0 c4,0 4,4 0,4 l-4,-2 l-1,0 l-1,-1 l-1,-2 l0,-1 l-1,-2 l-2,-7 c-1,0 -2,5 -1,7 l1,2 l3,7 l3,3 l8,-1 l1,-1 l0,-6 c0,-4 0,-5 5,-10 l6,-7 l5,-5 l2,2 a342,342 0 0 0 14,16 c1,1 0,4 -2,4 l-1,1 c-1,2 -2,0 -1,-2 l0,-2 l-1,-2 l-4,-3 l-2,-2 c-3,-1 -8,1 -8,4 l-1,1 l-1,4 l1,5 l1,1 l4,3 l0,3 l-2,0 l0,7 l1,0 l8,-6 c1,-1 4,-1 6,1 s2,3 -1,5 l-3,6 c-4,5 -4,6 -2,7 l3,-3 c0,-2 2,-5 4,-5 l1,0 c0,-2 6,0 6,2 l1,1 c1,1 1,5 -1,5 l-1,0 l-2,1 l-1,1 l-1,0 l-1,1 l-2,0 c-2,0 -3,6 -1,7 l2,0 l16,-9 l5,0 l0,1 l2,4 l0,2 l2,4 l0,3 c1,3 -3,4 -5,1 c-2,-5 -3,-5 -5,-4 l-2,1 l-3,3 l-3,6 l0,3 l1,2 l1,1 l0,1 l1,1 c1,1 0,1 -1,2 c-2,0 -3,1 -3,2 l-1,2 c-2,2 0,4 2,2 l2,0 l3,-1 l3,0 l4,-2 l4,0 l4,-1 c3,0 3,0 3,2 s1,2 3,0 c2,-1 2,-2 2,-3 c0,-2 2,-5 4,-5 l5,-5 l0,-8 c-1,-1 -2,0 -4,1 l-2,2 l1,1 l0,5 l-5,4 l-4,-16 l-1,-1 l0,-2 l-1,-2 l0,-2 l-1,-3 l-1,-1 l-1,-2 l0,-2 l-9,-18 c-1,-1 0,0 0,0 l-1,-3 l-3,-3 l-1,-3 l-2,-2 l-3,-5 l-3,-3 l-2,-3 a205,205 0 0 0 -42,-35 l-4,-3 l-1,0 l-1,-1 l-1,0 l-1,-1 l-3,-1 l-6,-3 l-1,-1 l-8,-3 l-2,0 c-3,0 -4,-3 -3,-5 c3,-4 7,-3 11,1 l3,2 l2,2 c0,1 3,4 4,3 l-1,-3 l-1,-2 l-8,-8 c-1,-3 -10,-4 -12,-2 m-46,2 l-32,2 l0,1 l1,1 c0,2 4,3 5,2 c3,-1 7,1 7,3 l-5,3 c-2,0 -2,2 -1,4 l1,3 l6,6 l3,0 l4,-1 c2,-1 4,-1 4,2 c0,1 1,3 3,3 l3,0 c1,-2 0,-8 -1,-10 l0,-14 l4,-1 c5,1 6,1 5,5 l0,19 l1,1 c3,4 4,3 4,-5 l1,-7 l0,-5 c0,-6 1,-7 6,-5 l0,-4 l-1,-1 l-7,-1 a119,119 0 0 1 -11,-1 m-8,7 l0,3 c1,3 0,7 -1,7 l-3,1 l-2,2 l-2,0 c-2,1 -4,0 -4,-2 l1,-2 c4,-1 6,-3 5,-4 l-1,-2 l0,-2 c-2,-2 0,-3 4,-3 l2,0 l0,2 m-45,1 l-1,0 l-2,1 l-2,0 l-1,1 l-2,1 l-2,0 l-1,1 l-2,0 l-1,1 l-23,12 l-1,1 l-3,2 l-13,10 a48,48 0 0 0 -8,8 l-4,4 a171,171 0 0 0 -13,13 l-3,-6 l6,-7 l8,-4 c2,0 3,-2 1,-2 l-4,0 l-9,4 l-7,7 l-1,2 l0,1 l2,5 l4,2 c1,0 2,2 1,4 l-2,1 l1,2 l3,0 l2,-1 c2,-1 3,-1 5,1 l2,2 l5,3 l5,4 l8,0 l0,-1 l-2,-2 l-3,-2 l-6,-5 l-8,-5 c-2,-1 1,-5 10,-13 l2,-3 l3,-2 l1,-2 l2,-2 c0,-1 2,-1 3,1 l2,2 c1,1 1,1 -2,1 c-4,0 -9,4 -9,7 l-1,1 l0,2 l2,6 l2,1 l10,0 l2,-2 l2,-3 c0,-1 2,-3 3,-2 l1,0 l3,2 l1,-1 c4,0 4,0 0,-5 l-9,-9 l-2,-3 c-2,-2 -2,-3 -1,-4 l5,-4 l13,-7 c1,1 0,2 -2,3 l-4,2 c-4,2 -3,6 2,9 c3,2 3,2 3,4 c0,1 1,3 3,3 l11,0 l5,-6 l4,-1 c4,0 5,-1 2,-3 l-1,-2 l0,-1 l-1,-1 l-1,-2 l0,-1 l-1,-1 l-4,-7 c-2,-4 -2,-5 0,-6 l2,0 l1,-1 l2,-1 c2,-1 4,0 5,2 l1,5 l3,8 l0,2 l1,2 l4,4 c2,-1 3,-3 2,-5 l-1,-1 l-1,-2 l0,-3 l-4,-10 c-1,-3 0,-5 2,-5 l2,0 l1,-1 l0,-1 l-2,-2 l-5,0 m-19,15 l0,1 l2,3 l1,1 l0,2 l1,1 l1,2 c1,2 0,6 -3,8 l-6,5 l-3,-1 l2,-4 l2,-1 l1,0 l2,-3 c0,-3 -4,-3 -7,-1 c-4,4 -3,3 -5,3 c-1,-1 -1,-3 1,-4 l1,-1 l2,-1 l1,0 l2,-2 c2,-1 2,-4 0,-4 l-1,-2 l3,-3 l2,0 m134,6 l2,0 l4,5 c0,2 -9,2 -11,1 c-2,-2 -2,-3 0,-6 c1,-1 4,-2 5,-1 m35,13 l2,2 c2,1 -3,9 -5,9 l-5,-4 l-1,-1 l2,-2 l3,-4 c1,-2 2,-1 4,1 m-114,5 l-4,0 l-8,2 l-3,0 l-20,8 l-1,1 l-1,0 l-1,1 l-9,4 l-9,8 l-2,1 a159,159 0 0 0 -19,19 l-5,7 l0,2 l-2,2 l-2,3 l-1,3 l-6,12 l-1,6 l-2,4 l0,2 l-2,7 l-1,29 a40,40 0 0 0 2,11 l1,4 l0,3 l1,2 l0,2 l1,1 l0,1 l1,2 l1,3 l0,1 l1,2 l1,1 l0,2 l1,2 l1,1 l0,1 l1,1 l2,5 l3,3 l0,1 l3,4 l1,2 l1,1 l1,2 a109,109 0 0 0 42,33 l15,6 l2,0 l2,1 l2,0 l11,3 a188,188 0 0 0 41,-2 a75,75 0 0 1 9,-2 l4,-2 l1,0 l2,-1 l1,0 l1,-1 l1,0 l4,-2 l7,-3 l9,-6 l1,0 l4,-4 l2,-1 a161,161 0 0 0 24,-26 l3,-4 l3,-6 l0,-1 l1,-2 l1,-1 l2,-4 l1,-5 l2,-4 l0,-1 l1,-1 l1,-3 l0,-3 l1,-2 l1,-3 l0,-4 a140,140 0 0 0 -3,-49 l0,-2 l-2,-4 l0,-2 l-1,-2 l-1,-1 l-2,-4 l0,-2 l-4,-6 l-1,-2 l0,-1 l-1,-1 l-9,-13 a152,152 0 0 0 -26,-22 l-1,-1 l-4,-2 l-2,-2 l-4,-2 l-1,0 l-2,-1 l-1,-1 l-1,0 l-2,-1 l-2,0 l-1,-1 l-4,-2 l-2,0 l-2,-1 l-13,-3 l-4,0 l-30,-1 m-81,7 l-1,2 l0,2 l-1,1 l0,2 l-2,2 c0,2 -3,2 -4,0 c-3,-2 -1,-8 2,-8 l1,-1 l5,0 m92,1 l-1,100 l-8,0 l-21,-1 l-2,1 l1,-2 l1,0 l-2,-2 l-6,-10 l-2,-2 l0,-1 l-1,-2 c-1,-1 -1,-1 -1,1 c-1,1 -1,2 1,3 l1,2 l1,1 c1,1 1,2 -1,2 c-2,-1 -4,1 -2,2 l1,1 l2,3 l1,3 c-1,1 -4,-1 -4,-2 l-2,0 c0,1 -1,1 -1,-1 s-1,-2 -1,0 l-1,1 c-2,0 -2,-1 -1,-2 l0,-4 l-1,2 l0,2 l-1,1 l1,3 l0,1 c-1,0 -2,-1 -2,-3 c0,-5 -1,-5 -1,0 l-1,2 c-2,1 -3,-1 -2,-3 l0,-2 c0,-1 3,-5 4,-4 l0,1 c0,3 1,2 1,-1 l1,-5 c2,2 3,-3 1,-5 l0,-14 c0,-3 1,-2 1,5 l0,7 l1,-7 c0,-6 1,-8 1,-2 l1,4 l0,3 c1,2 2,4 3,3 l3,-3 l1,-2 l2,-3 c1,-3 3,-3 3,0 c0,8 2,10 2,3 l0,-4 c1,8 1,10 2,9 s2,-1 2,1 c1,2 2,2 2,0 s1,-2 2,-2 l2,-3 l0,-1 l-1,-1 l0,-2 l1,3 c1,4 2,5 2,1 s1,-5 1,-3 l1,1 l0,5 l-1,1 l0,2 l-1,1 l0,1 l-1,1 l2,-1 l2,-4 c0,-2 2,-3 4,-2 l2,-4 l0,-2 l-1,-2 l2,-2 l2,-3 l0,-1 l1,-4 l-1,-3 l0,-2 a40,40 0 0 0 -14,-13 l-9,-4 l-2,0 l-4,-2 a62,62 0 0 0 -31,3 l-1,1 l-4,2 l-1,0 l-2,1 l-1,1 l-1,0 l-5,4 l-1,2 l-3,2 l-3,3 l0,8 l2,2 l3,5 l1,7 c0,6 0,8 1,7 l0,-7 c0,-6 0,-8 2,-7 l0,4 c0,5 1,6 2,5 l0,-3 l1,-4 l0,-1 l1,1 l1,3 l-1,2 l0,11 l1,1 l0,-4 l2,-14 c1,-1 2,2 1,3 l0,2 l2,10 l1,-7 c0,-8 0,-8 1,-7 l0,3 l1,8 c0,8 1,9 2,6 l0,-18 c1,-2 2,-1 2,8 c0,8 0,9 2,6 l0,-15 l7,7 l0,10 l-1,2 l-6,6 l-1,3 l-7,0 c-1,2 -1,2 -5,3 c-15,0 -31,0 -30,-2 l0,-5 l2,-9 l1,-4 l0,-3 l1,-2 l0,-2 l1,-2 l0,-2 l1,-1 l1,-2 l0,-1 l1,-2 l1,-4 l2,-3 l0,-1 l1,-1 l3,-4 l1,-3 a145,145 0 0 1 23,-25 l3,-3 l3,-2 l6,-3 l3,-3 l4,-1 l1,-1 l4,-2 l2,0 l1,-1 l4,-2 l2,0 l2,-1 l1,0 l2,-1 l3,-1 l2,0 l2,-1 l5,0 l9,-2 l5,0 l0,2 m18,-1 l3,1 l5,0 l3,1 l2,1 l8,2 l2,1 l2,0 l4,2 l1,0 l1,1 l2,1 l1,0 l1,1 l1,0 l1,1 a59,59 0 0 0 13,8 l3,3 a122,122 0 0 1 29,34 l0,3 l4,7 l0,2 l1,2 l0,2 l1,1 l1,2 l0,3 l1,3 l1,4 l0,1 l2,10 l-1,1 l1,2 c1,1 -1,1 -17,1 l-87,0 l0,-101 l11,0 m101,17 c2,4 1,7 -3,5 l-2,-1 l-3,-3 c0,-4 5,-4 8,-1 m15,5 l2,3 l3,7 l2,3 l1,1 l0,2 l1,2 l0,1 c2,1 1,3 -1,4 c-1,0 -2,0 -3,-2 l-2,-5 l-7,-5 l0,-1 c2,0 2,-3 -1,-4 c-2,-2 -2,-2 0,-5 c2,-2 3,-2 5,-1 m-270,13 l-2,1 l-3,1 l0,2 l-1,1 l-1,3 l-3,7 l-2,7 l-1,3 l-1,2 l0,2 l-1,2 l0,3 l-1,2 l-3,12 l-1,1 c-1,1 0,2 3,2 c2,0 3,-1 3,-3 l2,-4 c0,-2 1,-2 2,-1 l3,0 c3,0 3,1 2,2 l-1,3 l0,1 l3,1 l3,-1 l4,-2 l1,0 l3,-1 l3,-2 l2,0 l1,-1 c2,0 2,-2 0,-3 l-3,0 l-1,1 l-6,3 c-1,0 -3,-6 -1,-6 c1,0 2,-1 2,-4 l1,-3 l8,0 l1,-1 l2,-1 c3,0 0,-2 -5,-3 l-18,-5 l0,-2 l3,-7 l2,1 l1,1 l1,0 l2,1 l2,0 l2,1 c11,5 11,5 14,3 l2,-2 l-4,-2 l-1,0 l-1,-1 l-4,-1 l-3,-2 l-2,0 l-4,-2 l-1,-1 l-2,0 c-1,0 -2,-4 0,-5 c1,-1 0,-3 -1,-2 m159,0 l-2,0 l-2,2 l-2,0 l-1,1 l-2,0 l-3,1 l-1,0 l0,57 l2,0 l1,-1 l9,-3 a37,37 0 0 1 18,1 l1,1 l3,1 l2,1 l5,-2 l1,0 l2,-1 l3,0 l2,-1 l13,0 l2,1 l3,0 l4,2 l2,0 l1,-2 l0,-52 c1,-1 -1,-2 -3,-2 l-3,0 l-2,-2 l-2,0 l-2,-1 c-2,-2 -10,-2 -11,-1 l-1,1 l-2,0 l-1,1 l-2,0 l-4,2 l-9,0 l-3,-1 l-1,-1 l-2,0 l-1,-1 l-1,0 l-2,-1 l-9,0 m8,3 l2,0 l3,2 l3,1 l1,0 l-1,1 c-2,0 -2,1 -1,2 l3,-1 l2,-1 l2,0 l-3,46 l-2,-1 l-2,0 a84,84 0 0 0 -21,1 l-5,2 l0,-47 s1,-2 2,0 l4,0 l0,-1 l-1,0 l1,-1 l2,-1 l1,-1 l1,0 l1,-1 l4,-1 l4,1 m40,0 l3,2 l1,0 l3,1 c3,1 4,2 3,10 l-1,38 l-3,-1 l-1,0 l-3,-1 a55,55 0 0 0 -19,1 l-2,0 l-2,1 l-2,0 l0,-47 l1,0 l4,2 c2,-1 3,-1 1,-2 l0,-1 l1,0 l3,-1 l2,-2 l2,0 c2,-2 6,-1 9,0 m5,4 c-2,0 -2,1 -1,1 l3,0 l-2,-1 m-56,0 l0,1 l3,0 l-3,-1 m6,0 c-1,1 2,2 3,1 l1,-1 l-4,0 m5,1 l3,1 c2,-1 1,-2 -1,-2 l-2,1 m26,0 l1,1 c2,0 3,-1 2,-2 l-3,0 m6,0 l2,1 l1,0 l-3,-1 m5,0 l1,1 l3,0 l-4,-1 m-53,10 c-1,1 0,2 1,2 s3,-1 2,-2 l-3,0 m5,0 l1,2 c1,1 3,-1 3,-2 l-4,0 m6,0 c0,1 1,2 2,1 l2,0 l-4,-1 m5,0 l1,2 l1,1 l1,-1 l1,-2 l-3,0 m6,0 c-1,1 0,3 1,3 s3,-2 2,-3 l-3,0 m14,0 l0,2 l1,1 l1,-1 c2,-2 2,-3 0,-3 l-2,1 m5,0 c-1,1 1,1 4,1 l3,0 l3,-1 l-10,0 m12,0 c-1,1 0,1 1,1 l2,-1 l-3,0 m6,0 l0,1 c1,1 3,0 3,-1 l-3,0 m-215,10 c4,1 5,2 4,8 c0,2 -2,3 -3,2 l-1,0 l-6,-2 l1,-6 l1,-1 l1,-2 l3,1 m161,0 l0,1 l1,1 l1,-1 c1,-1 1,-1 -1,-1 l-1,0 m11,0 l1,1 l2,0 c0,-1 -1,-2 -3,-1 m32,0 l-1,1 l4,0 l-1,-1 l-2,0 m-49,0 l2,1 c2,-1 1,-1 -1,-1 l-1,0 m11,0 l1,1 c2,0 4,0 3,-1 l-4,0 m11,0 c-1,1 0,1 2,1 l3,-1 l-5,0 m15,0 l2,2 l2,-2 l-4,0 m5,0 l0,0 m11,0 l1,1 l3,-1 l-4,0 m7,0 l0,1 l3,-1 l-3,0 m-112,2 l0,1 l-1,1 l-1,2 l0,1 c0,1 -2,3 -3,2 l0,-4 c0,-3 1,-4 3,-4 l2,1 m3,2 l-1,0 l1,-1 l0,1 m-19,0 l1,3 l-3,-3 l2,0 m195,1 l2,2 c1,3 3,3 5,2 l2,-2 l1,0 c1,-1 2,0 2,2 l1,3 l-4,3 l-3,1 c-2,1 -7,-3 -7,-5 l-1,-1 l-1,-6 c1,-1 2,-1 3,1 m-198,1 l1,2 l1,1 l3,4 l-3,-2 l-2,-3 l-1,-2 c0,-1 0,0 0,0 l-1,-1 l2,1 m19,3 l-2,2 l0,1 l-2,3 l0,-2 l1,-2 l2,-2 l0,-1 l1,-1 l0,2 m23,-1 l-1,3 l0,-3 l1,0 m3,3 l-1,3 l0,-6 l1,3 m-15,3 l-1,1 l0,-1 l1,-2 l0,-2 l0,5 m41,-5 l0,1 l4,0 l-4,-1 m5,0 l1,1 c1,1 4,0 3,-1 l-4,0 m6,0 l0,1 l4,0 l-4,-1 m5,1 l3,0 c2,0 1,-1 -1,-1 l-2,1 m6,0 l3,1 l1,-1 l-4,0 m15,0 l0,1 l3,-1 l-3,0 m5,0 l2,1 c1,0 3,-1 2,-2 l-4,1 m6,0 l0,0 m5,0 l0,0 m6,0 l0,0 m-124,5 l0,3 l0,-3 m28,3 l0,5 l1,-3 l0,-4 l-1,2 m74,1 c-1,1 0,2 2,2 s2,-1 1,-2 s-2,-1 -3,0 m6,0 c-2,1 -1,2 1,2 c3,0 4,-1 2,-2 l-3,0 m17,0 c-1,1 0,2 2,2 c2,-1 2,-2 0,-2 l-2,0 m-54,0 c-1,1 -1,2 1,2 s2,-1 2,-2 l-3,0 m17,0 c-3,1 -1,2 2,2 l2,-1 l-4,-1 m26,0 c-2,1 -1,2 1,2 s2,-1 1,-2 l-2,0 m-49,1 l2,1 l2,-1 l-4,0 m12,0 l2,1 l1,-1 l-3,0 m5,0 l2,1 c2,-1 2,-2 0,-2 l-2,0 m37,0 c-1,1 0,1 1,2 c2,0 2,-1 2,-2 l-3,0 m-113,3 l0,3 l1,-2 l-1,-1 m8,8 l-1,-1 l1,0 l0,1 m2,2 l0,2 l-1,-1 l0,-3 l1,2 m-23,4 c-1,1 -1,0 -1,-1 l1,0 l0,1 m-96,3 l-1,1 l-2,1 l-1,1 c-3,4 -4,10 -1,14 l1,2 l3,3 l1,0 l1,1 l2,0 c1,1 6,0 7,-1 l1,0 l4,-4 l2,-4 l0,-3 c2,-1 -4,-11 -6,-11 l-1,-1 l-10,1 m301,0 l-4,3 l-2,2 l0,3 c-1,8 0,10 4,13 l1,1 l2,1 l8,0 l3,-2 l2,-1 l1,-2 c3,-3 2,-14 0,-14 l-1,-1 c-2,-3 -12,-6 -14,-3 m-236,5 l30,0 a68,68 0 0 1 12,0 l35,0 c11,0 12,0 11,1 l0,15 c0,12 0,12 -2,12 l1,1 l1,0 l0,3 l1,4 l-1,2 c-1,1 0,3 1,3 l-1,3 l0,57 l-11,0 l-8,-2 l-3,0 l-4,-2 l-3,0 l-1,-1 l-2,0 l-24,-12 l-10,-8 l-12,-12 l-3,-4 l-3,-3 l-1,-2 l-3,-3 l-2,-4 a67,67 0 0 1 -6,-13 l-2,-5 l0,-2 l-1,-2 l0,-1 l-2,-6 l0,-2 l-2,-11 l0,-5 c-1,-1 2,-2 7,-2 l8,1 m110,0 l37,-1 a2229,2229 0 0 1 51,2 l0,6 l-2,12 l-1,3 l0,3 l-5,12 l0,1 l-5,10 l-1,1 l-4,6 l-1,2 l-3,4 a144,144 0 0 1 -28,25 l-3,2 l-3,1 l-1,1 l-5,2 l-4,2 l-2,0 l-2,2 l-2,0 l-2,1 l-2,0 l-3,1 l-2,0 l-2,1 l-4,1 l-8,0 l1,-4 l8,-10 l2,-1 l1,-2 l7,-6 l8,-4 l3,0 l2,1 l1,1 l1,-1 l2,-1 l2,0 l5,-1 l5,0 l3,-1 l2,-1 l2,0 l1,-2 l3,-3 c3,-2 3,-4 0,-4 l-2,-1 l-1,-1 l-22,2 l-2,2 l-1,0 l-15,10 l0,-2 l12,-12 l2,-1 l6,-1 l5,0 l2,-1 l1,-1 l4,-2 l1,0 l3,-1 l4,-2 l2,0 l2,-1 l1,0 l6,-3 l4,-5 l4,-7 c0,-4 -1,-5 -3,-3 l-1,0 l-5,-2 l-5,0 l-8,3 l-2,0 c-2,1 -4,1 -2,-1 l2,-2 l0,-1 l1,-2 l0,-2 c2,0 2,-1 2,-3 l1,-2 l1,-1 l0,-2 l1,-1 l0,-1 l1,-3 l0,-3 l-2,-1 l-2,1 l0,1 c-1,0 -5,1 -6,3 l-1,0 l0,-3 c1,-1 0,-2 -2,-1 l-1,1 l-1,0 l-5,4 l-1,0 l-2,2 l-5,3 c-2,1 -5,4 -5,6 l-2,3 c-3,3 -3,3 -3,5 l-1,3 l0,11 l-3,3 l-3,4 c-2,0 -3,1 -3,2 l-1,2 l0,1 l-1,2 l-1,1 l0,1 l-1,1 l-1,2 l0,1 l-1,1 l0,1 l-1,1 l-3,6 c-1,0 0,0 0,0 l-3,6 l-1,1 l0,2 l-1,3 l-3,3 l0,-5 l1,-2 l1,-1 l0,-2 l1,-1 l0,-1 l1,-2 l1,-1 l0,-1 l2,-4 l0,-2 l2,-2 l0,-2 l1,-2 l0,-1 l1,-2 l1,-1 l0,-2 l1,-1 l1,-2 l0,-2 l2,-4 l0,-2 l1,-1 l0,-2 c2,-2 0,-9 -2,-11 c-3,-2 -9,-1 -9,3 l0,1 l-1,2 l0,2 l-2,5 l0,2 l-1,3 l0,3 l-2,6 l0,-16 a878,878 0 0 1 0,-41 c-1,-1 0,-1 7,-1 l8,0 m-63,2 l-2,1 l-2,0 l3,1 l2,-1 l3,0 l-4,-2 l0,1 m5,2 l1,3 l0,1 l3,2 l-1,-1 l-1,-2 l0,-1 l-2,-2 m-11,2 l-2,3 l-2,5 l1,0 c0,-1 3,-4 4,-3 l2,0 l0,-5 l-1,-1 l-2,1 m15,5 c-1,2 0,3 1,3 l0,-3 c0,-2 -1,-1 -1,0 m-10,1 l1,0 l4,2 l-3,-3 l-2,1 m111,0 l-2,5 c-2,2 -6,1 -5,-1 c2,-3 5,-5 7,-4 m-115,1 l0,1 l1,1 l2,-2 l-3,0 m105,4 l-1,3 l-4,4 l0,-8 l1,-2 c3,-2 3,-2 3,3 m-95,-2 l0,5 c1,1 1,-1 1,-2 l0,-3 l-1,0 m-12,0 l1,1 l1,-1 l-2,0 m-14,1 l-3,3 c-1,0 -2,0 -2,2 l0,1 l-1,4 l2,-1 l1,-1 c3,0 5,-4 3,-5 l0,-2 l5,0 l1,1 l2,1 c0,2 2,2 2,1 l-4,-4 l-6,0 m12,0 c-1,2 0,2 1,2 l0,-2 l-1,0 m20,-1 l0,15 l1,-1 l-1,-14 m81,3 l1,1 l0,2 l1,2 l-1,4 c-2,2 -2,3 -2,1 l-1,-2 c-2,-4 -2,-3 -1,-5 c1,-3 4,-5 3,-3 m15,3 c3,0 0,3 -3,3 s-4,0 -2,-2 s3,-2 5,-1 m-118,2 l1,1 l0,-2 l-1,1 m98,1 l0,2 c2,0 1,6 0,7 c-1,2 -3,2 -3,0 l0,-10 l2,-1 l1,2 m-58,0 l-2,1 l2,1 l3,0 l2,1 l2,0 l1,1 l2,-1 l-1,0 l-2,-1 l-2,-2 l-5,0 m-24,1 l0,2 l1,-1 l-1,-1 m-28,1 l-3,3 l3,0 l2,-2 l5,0 l1,-1 l-5,0 l-3,1 m14,-1 l0,3 l1,-2 l-1,-1 m31,0 l-1,1 l-1,0 l-1,1 c-2,0 -7,5 -7,7 l-1,1 l-3,0 l-3,3 l-6,3 l-2,0 l1,-2 l2,-2 l0,-1 l-1,0 l-1,1 l-1,2 c-1,1 -2,2 -1,3 l1,1 l-1,1 l0,-1 l-1,-1 l-2,0 c0,-2 -2,-1 -2,1 l1,0 c1,-1 1,-1 1,1 l-1,3 c-1,1 -1,1 -1,-1 l-2,0 l0,1 l-2,5 l-2,2 l0,1 l-1,1 c0,2 1,2 3,0 c2,-3 3,-4 3,-7 l1,-2 l0,3 l9,-9 l1,0 l2,-1 l1,0 l1,-1 l1,0 l4,-2 l1,0 l2,1 l1,1 l3,1 l2,1 l2,0 l3,2 l3,1 l-5,-4 l-1,-1 l-2,0 l-3,-1 l-1,-2 l-2,-1 l6,-6 l3,-2 l1,0 l1,-1 l0,-1 l-1,0 m82,1 l-1,4 l-5,1 l-5,-2 l3,-3 l8,0 m-101,1 l0,1 l-1,2 l-1,1 l0,1 l-1,2 c0,1 1,1 1,-1 l2,-2 l0,-1 l1,-2 l-1,-1 m-18,1 l-1,12 l0,1 l-2,5 l2,-2 l0,-2 l1,-1 l0,-2 c2,-1 2,-12 0,-12 l0,1 m-14,1 l0,2 l1,-1 c0,-2 0,-2 -1,-1 m21,2 l0,6 l1,-4 c0,-4 -1,-6 -1,-2 m189,1 l-1,1 l-1,3 l-2,2 l0,2 l-1,1 l-2,4 l-1,1 l0,1 l-2,2 l-3,7 l-3,3 l-2,3 l-1,2 l-2,-1 l-1,-2 c-1,-1 -3,-1 -4,1 s1,3 2,2 l1,-1 l1,1 c2,1 2,2 1,3 c-2,2 -1,5 1,3 l1,1 l1,2 l0,6 l-1,2 l0,2 l-1,1 c0,1 0,2 -1,1 l-1,-1 l1,-2 l0,-5 l-3,0 l0,-3 c1,-1 1,-1 2,1 c0,1 1,1 1,-1 l-3,-3 l-2,2 l0,2 l-1,2 c-1,-1 -2,0 -2,1 l-2,1 l-1,1 l-2,3 c-4,5 -5,7 -2,6 l2,0 l0,6 c0,1 1,5 3,5 l1,-3 c0,-4 3,-6 4,-2 l1,2 c1,0 2,-3 1,-4 l-1,-1 l0,-2 l-2,-6 l0,-5 c1,-1 1,-1 2,1 l1,1 l0,3 c0,2 0,2 2,3 l1,1 l2,-1 l2,-3 c0,-2 1,-3 2,-1 s1,0 1,-2 l0,-3 l-1,-1 l-1,-2 l0,-2 l-1,-3 l0,-4 l1,-2 l1,0 l1,1 l0,2 c0,4 4,4 6,1 c0,-2 3,1 3,3 s1,3 1,1 c1,-2 1,-2 1,1 c0,2 -1,4 -4,5 c-3,0 -2,1 1,1 c2,0 5,-2 5,-4 l1,-1 l-1,-6 l-2,0 l-2,-2 l-1,-2 l0,-2 l-1,-2 l0,-2 l-1,-2 c-2,-1 -1,-5 1,-7 s3,-1 2,1 l0,3 c-1,2 0,3 5,5 c3,1 4,-1 0,-2 l-2,-1 l0,-3 l-2,-8 l2,-4 l2,2 l1,2 l1,1 l0,2 l1,1 c0,2 1,3 2,3 l0,-5 l-1,-2 l-1,-1 l0,-2 l-2,-4 l0,-6 l-1,1 m-120,0 c2,1 2,2 2,6 l0,4 l-1,2 l0,2 l-3,7 l0,2 l-2,2 l0,3 l-1,2 l-1,1 l0,2 l-1,2 l-1,1 l0,1 l-1,2 l0,2 l-2,2 l0,1 c0,2 -1,3 -2,2 l0,-3 l1,-5 l0,-5 l1,-4 l0,-3 l2,-6 l0,-3 l1,-2 l0,-3 l1,-2 l3,-9 c1,-2 2,-2 4,-1 m21,1 l0,5 l-1,2 c0,1 -1,2 -2,1 c-2,-2 -2,-6 -1,-7 l1,-2 c0,-1 2,-1 3,1 m36,-2 l-2,7 l-4,0 c-1,-2 4,-9 6,-7 m-24,1 c2,1 2,3 1,4 c-2,1 -6,-1 -6,-2 l3,-2 l2,0 m31,0 l1,0 c2,0 2,2 0,5 c-2,1 -6,0 -6,-1 c0,-3 3,-6 5,-4 m-229,1 l0,9 c-2,1 -2,2 -1,3 l0,2 c0,2 0,4 2,4 c1,0 3,6 1,8 l0,1 c1,1 1,1 -2,1 l-1,6 c0,3 1,5 2,4 l0,-6 l1,0 c0,1 1,1 1,-2 l1,-2 l0,-1 l2,-4 l0,-2 l1,-2 l1,-1 l0,-1 l1,0 l1,1 l0,4 l-1,2 l0,7 s2,-1 2,-3 l0,-2 l1,-1 c0,-2 0,-3 1,-2 l1,2 l0,7 l-3,0 c-2,-1 -2,-1 -2,1 s1,2 2,3 l0,6 c2,2 2,2 2,-1 l1,-2 l3,-8 l9,11 l0,5 c-1,1 -1,-1 -2,-3 l-2,-1 l-5,-5 l0,8 l1,-1 c1,-1 2,0 2,1 l0,6 l2,5 c1,1 0,2 -2,2 l-2,1 l3,2 c2,0 3,1 3,2 l1,2 l0,-5 l1,-5 c-1,-3 -1,-4 -2,-2 c0,2 -2,1 -2,-2 l1,-5 l3,3 l2,1 l0,-2 c0,-1 1,-2 3,-2 s1,0 0,-1 l0,-1 l-1,-2 l-2,-2 l-2,-4 l-2,-2 l-3,-4 l-2,-4 c0,-2 -2,-3 -2,-3 l-1,-2 l-2,-1 l-2,-4 l-2,-2 l-1,-2 l0,-1 l-1,-2 l-1,-1 l0,-1 l-1,-1 l0,4 c1,2 0,6 -2,7 s-3,-5 -2,-6 l0,-6 l-1,0 l-1,-1 l2,-2 l0,-3 l-2,0 m112,0 l0,1 l1,-1 l-1,0 m102,1 l0,3 l-1,2 c0,2 -2,3 -3,3 c-2,0 -4,-1 -3,-2 l2,-5 l1,-1 l4,0 m-23,3 l2,1 l0,3 l-2,1 l-4,0 l2,-6 l2,1 m14,1 l-1,3 l0,3 c0,2 -6,3 -6,0 c0,-1 5,-7 7,-7 l0,1 m-110,1 l0,1 c1,1 1,0 1,-1 l-1,0 m129,1 c2,1 2,2 1,3 c-3,2 -6,1 -6,-1 c0,-3 3,-4 5,-2 m-8,2 c3,3 0,7 -3,4 l0,-3 c2,-2 2,-2 3,-1 m-21,4 l0,1 c0,2 -3,4 -4,4 c-2,1 -2,0 -1,-2 l1,-3 l2,-2 l3,-2 l0,2 l-1,2 m-180,-2 l0,5 l1,2 c0,3 0,4 1,3 c1,-3 -1,-12 -2,-10 m194,1 l0,3 c-5,2 -7,1 -4,-2 c2,-2 2,-2 4,-1 m-81,1 l0,2 l1,-1 l0,-1 l1,-1 c-1,-1 -1,-1 -2,1 m61,0 l0,2 l-1,2 l-4,2 l-1,1 l-3,2 l-2,2 c0,-1 3,-8 5,-9 c2,-2 3,-3 4,-2 l2,0 m-106,2 l0,2 l2,-2 l-2,0 m118,0 l1,2 l0,1 c2,2 -5,4 -6,2 l1,-4 c2,-2 3,-2 4,-1 m-60,2 l-2,1 l-1,1 l-1,0 l-2,1 l-4,1 c-3,-1 -4,0 -4,1 l-1,1 l0,1 l-1,2 l0,1 l2,-2 c0,-2 2,-3 5,-3 l3,0 l1,-1 l2,-1 l4,-4 c0,-1 -1,-1 -2,1 m-15,0 c-1,2 0,3 2,2 l1,0 c1,1 2,1 3,-1 c1,-1 1,-1 -1,-1 l-3,-1 l-2,1 m51,2 l-1,1 l0,1 l-1,0 l1,-1 l0,-1 l1,-1 l0,1 m11,2 l-3,2 l-7,7 l4,-6 l2,-1 l1,-1 l1,0 l0,-1 l2,0 m-118,2 c0,1 2,2 3,1 l2,0 c3,-2 5,0 2,2 l-1,2 l0,1 l-1,4 l0,3 l44,-2 l2,-1 l3,-3 c2,-1 2,-1 1,-2 l-4,3 l-2,1 l-1,0 l-4,2 l-38,0 l0,-1 l1,-2 l0,-2 l1,-2 l1,-1 l0,-1 l2,-2 c2,-1 0,-1 -5,-1 l-6,0 l0,1 m105,-1 l-1,1 l0,-1 l1,0 m101,2 l1,2 l0,4 l-1,3 l-1,0 l-1,-1 l0,-2 l-1,-3 l0,-1 l1,-2 l1,-1 l1,1 m-103,1 l-1,2 l0,2 l-2,8 l-5,7 l0,1 l-2,2 c0,1 0,1 0,0 l0,-1 l1,-1 l0,-1 l1,-2 l0,-1 l1,-2 l1,-1 l1,-2 l0,-3 l1,-2 l0,-1 l2,-4 l2,-2 l0,1 m39,3 l-1,2 c-2,1 -3,0 -2,-2 s3,-3 3,0 m-6,0 c0,3 -4,6 -4,3 c-1,-1 1,-3 2,-4 c2,-1 2,-1 2,1 m11,0 c2,2 1,3 -1,3 c-3,0 -3,0 -2,-2 s2,-2 3,-1 m-90,1 l2,1 l0,-1 l-2,0 m73,0 l-2,4 c-1,1 -3,-1 -2,-2 l2,-2 l2,1 m-70,1 l0,0 c0,-1 0,0 0,0 m64,0 l-5,5 l1,-3 c2,-2 3,-3 4,-2 m19,2 c2,1 1,2 -1,1 l-2,0 c-1,-2 2,-2 3,-1 m-6,0 l0,2 c-2,0 -3,-1 -2,-2 l2,0 m-6,2 l-1,1 c-2,1 -3,0 -1,-2 c2,-1 2,-1 2,1 m-197,0 l0,3 c1,1 1,0 1,-1 c0,-2 0,-3 -1,-2 m192,0 l0,3 l-4,0 l3,-3 l1,0 m-107,4 l1,1 l12,1 l-5,-2 l-8,0 m-84,1 l1,4 l1,-2 l-2,-2 m171,0 l-2,3 l1,-1 l0,-1 l1,-1 m-5,1 l0,1 l-1,-1 l1,0 m-56,1 c-1,1 0,2 5,2 l6,0 c2,1 4,0 2,-1 l-13,-1 m55,1 l-1,1 l0,-2 l1,1 m-2,2 l0,2 l-1,1 c0,2 -3,5 -3,4 l0,-1 l4,-6 l1,0 m-66,3 l0,0 m154,4 l1,2 l-2,4 l-1,0 l-1,-2 c-1,-2 0,-6 2,-6 l1,2 m-221,-1 l0,1 l1,2 l2,3 c4,3 4,4 3,6 l-1,1 l-1,-3 c-2,-2 -3,-2 -4,-1 l0,2 l1,2 c0,2 1,3 2,2 l1,0 l0,12 l2,-3 l1,-3 l0,-3 l2,-5 l1,0 l1,3 l-2,7 l0,9 l1,-2 l1,-3 l0,-3 l2,-6 c0,-2 1,-2 3,0 l1,4 l0,2 l-2,0 c-1,0 -2,1 -1,2 l1,4 c0,3 1,4 1,2 l2,-2 l2,-7 c2,-2 5,3 3,6 l-1,3 l0,10 l2,-6 l1,-4 l0,-3 l1,-2 l1,0 l2,2 c2,1 2,4 0,4 l-1,2 c-1,5 1,11 4,11 l0,2 c0,2 1,2 2,3 l2,-6 l0,-4 c0,-5 1,-6 2,-5 l1,2 l0,10 l1,3 c3,4 5,3 5,-2 c1,-7 2,-9 4,-8 l-1,11 l0,7 c2,1 3,-1 3,-6 l0,-5 l1,-2 l0,-3 l1,1 l1,0 l0,-1 c0,-2 -2,-5 -4,-5 l-3,-1 l-2,-2 l-1,0 l-1,-1 l-3,-1 c-2,0 -3,-3 -4,-3 l-2,-2 l-1,0 l-13,-10 l-20,-18 m129,5 l-1,-1 l1,0 l0,1 m72,10 l-1,0 l-9,8 l-2,1 l-2,2 l-2,1 l-3,2 l-2,2 l-8,4 l-2,2 l-13,6 l-7,2 c-3,2 -5,2 -5,-1 s5,-5 6,-3 l3,0 l-2,-2 l-1,0 c-1,-1 -6,-2 -7,-1 l0,9 l-7,2 l-2,1 l-3,1 l-4,0 l-4,1 l-15,1 c-1,-1 -2,-2 -1,-4 c0,-2 1,-3 3,-2 l3,3 l2,0 l-4,-5 c-3,-3 -7,-1 -7,4 l-1,4 c-1,1 -1,2 1,3 l0,2 l1,15 c1,4 1,2 1,-7 c0,-10 0,-10 2,-10 l2,1 l2,0 l3,-1 l2,0 l0,1 l-1,2 l-3,-1 l-2,1 l-1,3 l0,5 c1,3 4,5 5,3 c1,-1 3,0 3,2 l1,1 c1,0 2,-2 1,-3 l-1,-14 c1,-1 3,0 3,2 l2,4 c1,1 2,3 1,4 l0,1 l-1,-1 l-2,0 c-1,2 0,5 2,5 l1,2 l3,3 l-1,-3 l0,-1 l-1,-1 l1,-2 l1,-3 l1,-1 l0,-9 c-1,-1 8,-4 9,-3 s0,3 -2,3 c-6,0 -6,9 -1,12 l1,1 l2,-2 c1,-2 1,-2 1,0 s1,3 2,3 s2,-5 1,-7 l0,-12 l1,2 l1,1 l0,7 c1,6 1,8 3,7 l0,-5 l-1,-7 c0,-6 0,-6 4,-7 l2,-1 c2,-2 4,-1 4,1 l0,2 l-2,-1 c-4,0 -5,1 -5,6 c0,4 0,4 2,5 c2,2 4,2 5,-1 l1,2 l1,1 c2,0 2,-3 1,-8 c-1,-7 0,-11 2,-11 l4,0 l-1,1 c-3,0 -4,5 -2,7 l0,3 c0,2 2,4 3,5 l3,0 l4,-3 c2,0 2,-1 1,-4 l-1,-5 l0,-6 c-1,-3 -1,-4 1,-4 c1,0 2,2 2,7 l0,4 l2,5 c2,1 2,-2 1,-4 l-1,-3 l0,-3 l-1,-5 l0,-3 l4,-2 l2,-2 l3,-2 l2,-1 c2,1 2,3 0,4 l-4,2 c-3,0 -3,1 -3,6 l0,5 l3,3 l3,0 l-2,-3 c-3,-2 -3,-3 -3,-4 c0,-3 3,-5 3,-2 c1,1 2,1 2,-1 c1,-5 4,-4 4,2 l0,3 l1,0 c2,0 2,-4 1,-6 l-1,-4 l-1,-2 l0,-2 l1,-4 l2,-1 l1,-1 l0,3 c-1,4 -2,4 -1,5 l1,1 c0,3 4,3 6,1 c0,-2 1,-2 1,-1 s2,3 3,2 s0,-2 -1,-4 l0,-4 l-1,-3 l0,-9 l-2,-1 m-1,8 l0,7 l-3,4 l0,-4 l1,-1 l0,-7 c1,-1 2,-1 2,1 m9,3 l0,4 l1,4 l0,2 c1,0 2,-7 1,-9 c0,-2 -2,-2 -2,-2 m-175,9 c2,2 0,9 -3,9 c-2,0 -3,-5 -1,-5 c1,0 2,-1 2,-3 s1,-3 2,-1 m-18,1 l0,5 c1,1 2,0 2,-3 l-2,-2 m28,5 l-1,9 c-2,2 -3,-1 -2,-5 l1,-4 l2,0 m25,0 c0,2 0,4 2,4 c1,0 2,-3 0,-4 l-1,-1 l-1,1 m101,3 l0,11 l-1,1 l0,1 l-1,2 l-2,0 l0,-3 c2,0 3,-2 2,-4 c0,-1 -1,-1 -2,1 c-2,1 -3,1 -3,-1 l2,-2 c2,0 4,-3 3,-5 c-1,-1 0,-2 1,-2 l1,1 m-112,1 l1,3 l1,1 l1,3 c0,1 0,0 0,0 l-1,2 l0,7 c1,2 1,2 2,1 l4,0 l0,3 c0,2 1,5 2,4 l0,-6 c1,-12 1,-12 11,-8 c1,0 0,2 -3,2 l-2,0 l0,5 l1,2 l3,3 c2,0 2,1 1,2 c-1,2 -2,1 -4,-1 l-3,-2 l0,2 l1,1 c0,2 3,4 4,4 l1,0 c2,1 5,-4 3,-5 l0,-2 c0,-2 -1,-3 -4,-4 c-3,0 -2,-2 1,-2 l3,0 l0,-1 c0,-3 1,-4 3,-3 l3,1 l3,0 l3,1 l2,1 c0,2 -1,3 -2,2 l-2,0 l-2,-1 c-2,-2 -3,-1 -5,2 l0,7 l1,3 l3,3 l0,-2 l-1,-1 l0,-3 l-1,-3 l0,-3 l1,0 c2,0 2,0 2,2 l0,2 c1,1 2,1 2,-1 l3,-3 l0,11 l2,2 l0,-7 l1,-7 c1,-1 0,0 -1,-1 l1,-3 c3,-3 1,-4 -4,-4 l-7,-2 l-4,0 l-2,-1 l-2,0 l-2,-1 l-3,-1 l-2,0 l-2,-1 l-6,-2 l-5,-1 m8,6 c2,1 1,8 -1,8 s-3,-9 0,-9 l1,1 m91,6 l-3,4 c-1,1 -2,-2 -2,-3 l1,-2 c0,-1 4,-1 4,1 m-29,2 l0,5 l-2,-2 l0,-4 c1,-1 2,-1 2,1 m11,2 l0,3 c-2,3 -3,3 -4,2 s-1,-3 0,-3 l0,-2 l4,0 m-68,3 l0,2 l1,-1 l-1,-1 m47,2 l-1,1 l-1,2 c-2,2 -4,1 -4,-2 s4,-4 5,-1" class="selected"/></g></svg>