<svg version="1.1" id="Layer_1" xmlns="http://www.w3.org/2000/svg" x="0" y="0" viewBox="0 0 1036 192" xml:space="preserve"><style>.st0{fill:none}</style><path class="st0" d="M-128-128h1292v448H-128z"/><path class="st0" d="M0 0h1036v192H0z"/><g opacity=".54"><path d="M668 144V52.4h31.2c15.2 0 28.7 11.3 28.7 27.3S714.5 107 699.2 107h-19.4v37H668zm31.5-48.4c8.8 0 16-7.2 16-16s-7.2-16-16-16h-19.7v32h19.7zm48.3-14.3l-.5 8.7h.5c3.3-5.8 11.3-10.8 19.8-10.8 16 0 23.9 10.9 23.9 26.4V144h-11.8v-36.6c0-13-6.5-17.4-15.5-17.4-10.2 0-16.5 9.7-16.5 19.3V144H736V52.4h11.8v28.9zm118 31.3c0 19.1-13.4 33.4-32.2 33.4s-32.2-14.3-32.2-33.4 13.4-33.4 32.2-33.4 32.2 14.4 32.2 33.4zm-11.8 0c0-14.3-10-22.6-20.5-22.6S813 98.3 813 112.6s10 22.7 20.5 22.7S854 127 854 112.6zm26 12.3V92h-11V81.3h11V62.1h11.8v19.2h15.3V92h-15.3v32c0 7 2.9 10.2 8.4 10.2 1.8.1 3.7-.3 5.4-1l4.1 10.1c-3 1.2-6.2 1.8-9.5 1.7-13.2 0-20.2-7.3-20.2-20.1zm97.8-12.3c0 19.1-13.4 33.4-32.2 33.4s-32.2-14.3-32.2-33.4 13.4-33.4 32.2-33.4 32.2 14.4 32.2 33.4zm-11.8 0c0-14.3-10-22.6-20.5-22.6S925 98.3 925 112.6s10 22.7 20.5 22.7S966 127 966 112.6zm17 15.5l10.5-4.4c3.3 7.9 9.5 11.8 17 11.8 7.3 0 12.5-3.6 12.5-8.8 0-3.2-1.9-6.6-8.6-8.3l-12.7-3.1c-5.8-1.4-16.8-6.4-16.8-17.4 0-11.4 11.8-18.7 24.8-18.7 10.9 0 20.3 5 24.2 14.6l-10.2 4.2c-2.4-5.9-8.2-8.3-14.3-8.3-6.7 0-12.4 3-12.4 8.1 0 4 3.3 6.1 8.3 7.3l12.4 2.9c12.4 2.9 17.3 10.6 17.3 18.3 0 11.1-10 19.7-24.7 19.7-15.1 0-23.6-8.9-27.3-17.9z"/><path class="st0" d="M668 41h368v136H668z"/><path class="st0" d="M220 41h816v136H220z"/><path d="M220.7 93.6c0-28.9 24.3-52.5 53.2-52.5 13.5-.2 26.4 5 36 14.5l-10.1 10.1c-6.9-6.7-16.2-10.4-25.9-10.2-21.1 0-37.6 17-37.6 38.2s16.5 38.1 37.6 38.1c13.7 0 21.5-5.5 26.5-10.5 4.1-4.1 6.8-10 7.8-18H274V88.8h48.3c.5 3 .8 6 .8 9 0 10.8-2.9 24.1-12.4 33.5-9.2 9.6-21 14.7-36.6 14.7-29.1 0-53.4-23.5-53.4-52.4zM362 78.5c-18.7 0-33.9 14.2-33.9 33.8S343.3 146 362 146s33.9-14.3 33.9-33.8-15.2-33.7-33.9-33.7zm0 54.2c-10.2 0-19.1-8.4-19.1-20.5s8.8-20.5 19.1-20.5 19.1 8.3 19.1 20.5-8.9 20.5-19.1 20.5zm74-54.2c-18.7 0-33.9 14.2-33.9 33.8S417.3 146 436 146s33.9-14.3 33.9-33.8-15.2-33.7-33.9-33.7zm0 54.2c-10.2 0-19.1-8.4-19.1-20.5s8.8-20.5 19.1-20.5 19.1 8.3 19.1 20.5-8.9 20.5-19.1 20.5zm90.8-52.2V86h-.5c-3.3-4-9.7-7.6-17.8-7.6-16.9 0-32.4 14.9-32.4 33.9s15.5 33.7 32.4 33.7c8.1 0 14.5-3.6 17.8-7.7h.5v4.9c0 12.9-6.9 19.8-18 19.8-9.1 0-14.7-6.5-17-12l-12.9 5.4c5 12.1 16.8 20.1 30 20 17.4 0 32.1-10.2 32.1-35.2V80.5h-14.2zm-17 52.2c-10.2 0-18.8-8.6-18.8-20.4s8.6-20.6 18.8-20.6 18 8.7 18 20.6-7.9 20.4-18 20.4zm41.4-88H566V144h-14.8zm55.5 88c-7.6 0-12.9-3.5-16.4-10.2l45.2-18.7-1.5-3.8c-2.8-7.6-11.4-21.5-28.9-21.5s-31.9 13.7-31.9 33.8c0 19 14.3 33.8 33.5 33.8 11.3.1 21.9-5.6 28.2-15l-11.5-7.7c-3.9 5.6-9.1 9.3-16.7 9.3zm-1.1-41.2c5.9 0 10.9 2.9 12.5 7.2l-30.2 12.5c-.4-13 10.1-19.7 17.7-19.7z"/><path class="st0" d="M220 41h416v136H220z"/></g><path fill="#f6b704" d="M43.6 49.4C67 49.4 86 68.4 86 91.8v3.9H5.1c-2.1 0-3.8-1.7-3.9-3.9 0-23.4 19-42.4 42.4-42.4z"/><path fill="#e54335" d="M132.2 53.2c0 23.4-19 42.4-42.4 42.4H86V14.7c0-2.1 1.7-3.9 3.8-3.9 23.5 0 42.4 19 42.4 42.4z"/><path fill="#4280ef" d="M128.4 141.9c-23.4 0-42.4-19-42.4-42.4v-3.9h80.9c2.1 0 3.9 1.7 3.9 3.8 0 23.5-19 42.5-42.4 42.5z"/><path fill="#34a353" d="M39.8 138c0-23.4 19-42.4 42.4-42.4H86v80.9c0 2.1-1.7 3.8-3.9 3.9-23.4 0-42.3-19-42.3-42.4z"/></svg>