<svg xmlns="http://www.w3.org/2000/svg" width="582" height="402"><g><title>background</title><rect id="canvas_background" width="584" height="404" x="-1" y="-1" fill="none"/></g><g><title>Layer 1</title><path id="svg_2" fill="#05252a" d="m178,21l-8,2l-3,0l-2,1l-4,1l-4,0l-6,2l-2,0l-4,2l-1,0l-2,1l-3,1l-2,0l-2,1l-2,0l-2,2l-3,0l-2,1l0,1l-2,0a190,190 0 0 0 -29,16l-2,1l-4,3l-2,1l-2,2l-2,1l-2,2l-3,2a97,97 0 0 0 -9,9l-1,1l-4,2l-11,14l-2,2l-3,4l-3,3l-2,4l-4,6l-2,4l-1,0l-1,1l0,2l-1,1l-1,2l-1,1a70,70 0 0 1 -3,6l-1,4c0,2 -2,3 -2,3l0,1l-2,2l0,2l-11,38l0,4l-1,5l-2,16l0,14l1,9l9,42l2,4l1,3l0,2l1,1l0,2l2,4l1,1l2,4l0,1l1,1l0,1l2,4l2,2l0,1l1,2l2,3l0,1l1,1l2,4l1,1l1,2l2,1l2,4l1,1l4,5l1,2l12,13a97,97 0 0 0 13,12l2,1l1,2l1,0l2,2l30,19a102,102 0 0 0 17,8l1,0l4,2l2,0l2,1l1,0l4,2l3,0l3,1l2,1l2,0l7,2l17,3l56,-2l3,-1l3,0l3,-1l3,0l3,-1l2,-1l3,0l6,-2l2,-1l1,-1l2,0l2,-1l2,0l1,-1l2,-1l1,0l10,-5l5,-2l1,-1l19,-11l2,-2a125,125 0 0 0 10,-7l20,-18l2,-3l7,-8l3,-3l2,-4l1,-1l1,-2a48,48 0 0 0 6,-9l1,-2l2,-2l14,-31l2,-5l1,-1l0,-2l1,-3l0,-2l2,-5l0,-2l1,-3l0,-3l1,-3l3,-24l0,-11a130,130 0 0 0 -4,-33l0,-3l-1,-2l0,-3l-1,-3l-1,-2l0,-2l-1,-2l0,-3l-4,-9l0,-2l-1,-1l-1,-2l0,-2l-1,-1l-1,-2c-1,-1 0,0 0,0l-1,-3l-2,-4l-1,-1l0,-1l-1,-3l-2,-2l0,-1l-1,-1l0,-1l-1,-1l-1,-2l-2,-2l0,-2l-1,-1l-1,-2l-1,-1l-1,-2l-3,-3l-1,-2l-2,-2a66,66 0 0 0 -5,-7l-15,-15a50,50 0 0 0 -11,-10l-10,-9l-1,0l-1,-1l-4,-2l-5,-4l-1,0l-2,-1l-2,-2l-8,-3l-4,-3l-2,-1l-2,0l-1,-1l-1,0l-8,-4l-2,0l-4,-2l-1,0l-2,-1l-3,0l-2,-1l-1,-1l-2,0l-6,-2l-2,0l-6,-2l-5,0l-4,-1l-3,0l-5,-1l-21,-1a605,605 0 0 1 -21,0m39,8l51,13l2,1l1,1l1,0l2,1l1,0l32,19l4,4l3,1a112,112 0 0 1 13,12l5,5l2,3a97,97 0 0 1 17,21l1,1l3,5c2,2 2,5 2,5l1,1l4,8l3,4l0,1l1,2l0,1l1,2l0,2l2,2l0,1l1,2l1,3l0,2l1,1l1,2l0,2l1,2l0,2l1,2l1,3l0,3l1,2l0,3l3,12a243,243 0 0 1 -3,59l-1,3l0,3l-4,10l0,3l-3,8l-1,1l0,1l-1,2l0,2l-1,1l0,2a74,74 0 0 0 -6,12l-2,2l0,1l-4,6l-1,2l-11,15a235,235 0 0 1 -50,44l-3,2l-1,0l-2,1l-1,1l-14,7l-30,10l-4,0l-3,1l-4,1l-3,0l-10,2a271,271 0 0 1 -71,-6l-7,-3l-4,0l-2,-1l-1,-1l-7,-2l-2,-2l-1,0l-2,-1l-1,0l-1,-1l-2,-1l-1,0l-5,-3l-1,0l-1,-1l-5,-3l-1,0l-6,-4l-1,-1l-1,0l-1,-1l-3,-2l-3,-3a103,103 0 0 1 -18,-15l-8,-8l-3,-4l-3,-3l-20,-29l0,-2l-1,-1l0,-1a21,21 0 0 1 -4,-8a49,49 0 0 1 -5,-12l-3,-6l-1,-7l-1,-2l0,-2l-1,-2l-1,-4l0,-4l-1,-3l0,-3l-1,-3l-1,-8l0,-31l8,-38l1,-2l0,-3l1,-2l0,-2l2,-2l0,-2l1,-1l0,-2l1,-2l0,-1l2,-2l1,-4a59,59 0 0 1 7,-11l5,-9l4,-6l2,-2l1,-2l3,-3c2,-1 2,-3 2,-3l1,-2l19,-19l8,-6l1,-2l1,0l2,-2l4,-2l4,-4l37,-18l2,0l5,-2l1,-1l3,-1l2,0l2,-1l3,0l2,-1l26,-5l38,0m30,21l-1,2l-1,1l-1,2l0,3l-2,0l-2,-1c-1,-1 -2,0 -2,2s1,4 3,4c1,0 1,2 -1,6l-1,2l0,1l-2,4l0,2l-1,1l0,2l-1,2l1,4l1,1c0,3 3,2 3,-1l0,-1l1,-2l0,-2l1,-1l1,-2l0,-2l1,-2l0,-2l2,-2l0,-2l1,-2l4,0l6,2l1,1l2,0l1,1l2,1l2,0l4,2l4,3l-2,4l-7,-7l-2,0l-5,-1l-3,3l-2,1l0,4l1,6l4,4l1,0l3,1c4,0 5,1 3,3l0,3l1,1l2,3l0,-1l2,-2l0,-2l2,-2l0,-2l3,-5l0,-1l2,-2l2,-5c0,-1 7,2 9,4l1,1c2,0 2,2 1,4c-4,4 -4,5 -6,4l-3,0l0,3l2,9l1,-1l3,0l2,1l3,3l-2,2c-3,3 -3,4 -2,5c2,1 1,2 -2,2l-2,0l0,5l2,0c4,0 4,4 0,4l-4,-2l-1,0l-1,-1l-1,-2l0,-1l-1,-2l-2,-7c-1,0 -2,5 -1,7l1,2l3,7l3,3l8,-1l1,-1l0,-6c0,-4 0,-5 5,-10l6,-7l5,-5l2,2a342,342 0 0 0 14,16c1,1 0,4 -2,4l-1,1c-1,2 -2,0 -1,-2l0,-2l-1,-2l-4,-3l-2,-2c-3,-1 -8,1 -8,4l-1,1l-1,4l1,5l1,1l4,3l0,3l-2,0l0,7l1,0l8,-6c1,-1 4,-1 6,1s2,3 -1,5l-3,6c-4,5 -4,6 -2,7l3,-3c0,-2 2,-5 4,-5l1,0c0,-2 6,0 6,2l1,1c1,1 1,5 -1,5l-1,0l-2,1l-1,1l-1,0l-1,1l-2,0c-2,0 -3,6 -1,7l2,0l16,-9l5,0l0,1l2,4l0,2l2,4l0,3c1,3 -3,4 -5,1c-2,-5 -3,-5 -5,-4l-2,1l-3,3l-3,6l0,3l1,2l1,1l0,1l1,1c1,1 0,1 -1,2c-2,0 -3,1 -3,2l-1,2c-2,2 0,4 2,2l2,0l3,-1l3,0l4,-2l4,0l4,-1c3,0 3,0 3,2s1,2 3,0c2,-1 2,-2 2,-3c0,-2 2,-5 4,-5l5,-5l0,-8c-1,-1 -2,0 -4,1l-2,2l1,1l0,5l-5,4l-4,-16l-1,-1l0,-2l-1,-2l0,-2l-1,-3l-1,-1l-1,-2l0,-2l-9,-18c-1,-1 0,0 0,0l-1,-3l-3,-3l-1,-3l-2,-2l-3,-5l-3,-3l-2,-3a205,205 0 0 0 -42,-35l-4,-3l-1,0l-1,-1l-1,0l-1,-1l-3,-1l-6,-3l-1,-1l-8,-3l-2,0c-3,0 -4,-3 -3,-5c3,-4 7,-3 11,1l3,2l2,2c0,1 3,4 4,3l-1,-3l-1,-2l-8,-8c-1,-3 -10,-4 -12,-2m-46,2l-32,2l0,1l1,1c0,2 4,3 5,2c3,-1 7,1 7,3l-5,3c-2,0 -2,2 -1,4l1,3l6,6l3,0l4,-1c2,-1 4,-1 4,2c0,1 1,3 3,3l3,0c1,-2 0,-8 -1,-10l0,-14l4,-1c5,1 6,1 5,5l0,19l1,1c3,4 4,3 4,-5l1,-7l0,-5c0,-6 1,-7 6,-5l0,-4l-1,-1l-7,-1a119,119 0 0 1 -11,-1m-8,7l0,3c1,3 0,7 -1,7l-3,1l-2,2l-2,0c-2,1 -4,0 -4,-2l1,-2c4,-1 6,-3 5,-4l-1,-2l0,-2c-2,-2 0,-3 4,-3l2,0l0,2m-45,1l-1,0l-2,1l-2,0l-1,1l-2,1l-2,0l-1,1l-2,0l-1,1l-23,12l-1,1l-3,2l-13,10a48,48 0 0 0 -8,8l-4,4a171,171 0 0 0 -13,13l-3,-6l6,-7l8,-4c2,0 3,-2 1,-2l-4,0l-9,4l-7,7l-1,2l0,1l2,5l4,2c1,0 2,2 1,4l-2,1l1,2l3,0l2,-1c2,-1 3,-1 5,1l2,2l5,3l5,4l8,0l0,-1l-2,-2l-3,-2l-6,-5l-8,-5c-2,-1 1,-5 10,-13l2,-3l3,-2l1,-2l2,-2c0,-1 2,-1 3,1l2,2c1,1 1,1 -2,1c-4,0 -9,4 -9,7l-1,1l0,2l2,6l2,1l10,0l2,-2l2,-3c0,-1 2,-3 3,-2l1,0l3,2l1,-1c4,0 4,0 0,-5l-9,-9l-2,-3c-2,-2 -2,-3 -1,-4l5,-4l13,-7c1,1 0,2 -2,3l-4,2c-4,2 -3,6 2,9c3,2 3,2 3,4c0,1 1,3 3,3l11,0l5,-6l4,-1c4,0 5,-1 2,-3l-1,-2l0,-1l-1,-1l-1,-2l0,-1l-1,-1l-4,-7c-2,-4 -2,-5 0,-6l2,0l1,-1l2,-1c2,-1 4,0 5,2l1,5l3,8l0,2l1,2l4,4c2,-1 3,-3 2,-5l-1,-1l-1,-2l0,-3l-4,-10c-1,-3 0,-5 2,-5l2,0l1,-1l0,-1l-2,-2l-5,0m-19,15l0,1l2,3l1,1l0,2l1,1l1,2c1,2 0,6 -3,8l-6,5l-3,-1l2,-4l2,-1l1,0l2,-3c0,-3 -4,-3 -7,-1c-4,4 -3,3 -5,3c-1,-1 -1,-3 1,-4l1,-1l2,-1l1,0l2,-2c2,-1 2,-4 0,-4l-1,-2l3,-3l2,0m134,6l2,0l4,5c0,2 -9,2 -11,1c-2,-2 -2,-3 0,-6c1,-1 4,-2 5,-1m35,13l2,2c2,1 -3,9 -5,9l-5,-4l-1,-1l2,-2l3,-4c1,-2 2,-1 4,1m-114,5l-4,0l-8,2l-3,0l-20,8l-1,1l-1,0l-1,1l-9,4l-9,8l-2,1a159,159 0 0 0 -19,19l-5,7l0,2l-2,2l-2,3l-1,3l-6,12l-1,6l-2,4l0,2l-2,7l-1,29a40,40 0 0 0 2,11l1,4l0,3l1,2l0,2l1,1l0,1l1,2l1,3l0,1l1,2l1,1l0,2l1,2l1,1l0,1l1,1l2,5l3,3l0,1l3,4l1,2l1,1l1,2a109,109 0 0 0 42,33l15,6l2,0l2,1l2,0l11,3a188,188 0 0 0 41,-2a75,75 0 0 1 9,-2l4,-2l1,0l2,-1l1,0l1,-1l1,0l4,-2l7,-3l9,-6l1,0l4,-4l2,-1a161,161 0 0 0 24,-26l3,-4l3,-6l0,-1l1,-2l1,-1l2,-4l1,-5l2,-4l0,-1l1,-1l1,-3l0,-3l1,-2l1,-3l0,-4a140,140 0 0 0 -3,-49l0,-2l-2,-4l0,-2l-1,-2l-1,-1l-2,-4l0,-2l-4,-6l-1,-2l0,-1l-1,-1l-9,-13a152,152 0 0 0 -26,-22l-1,-1l-4,-2l-2,-2l-4,-2l-1,0l-2,-1l-1,-1l-1,0l-2,-1l-2,0l-1,-1l-4,-2l-2,0l-2,-1l-13,-3l-4,0l-30,-1m-81,7l-1,2l0,2l-1,1l0,2l-2,2c0,2 -3,2 -4,0c-3,-2 -1,-8 2,-8l1,-1l5,0m92,1l-1,100l-8,0l-21,-1l-2,1l1,-2l1,0l-2,-2l-6,-10l-2,-2l0,-1l-1,-2c-1,-1 -1,-1 -1,1c-1,1 -1,2 1,3l1,2l1,1c1,1 1,2 -1,2c-2,-1 -4,1 -2,2l1,1l2,3l1,3c-1,1 -4,-1 -4,-2l-2,0c0,1 -1,1 -1,-1s-1,-2 -1,0l-1,1c-2,0 -2,-1 -1,-2l0,-4l-1,2l0,2l-1,1l1,3l0,1c-1,0 -2,-1 -2,-3c0,-5 -1,-5 -1,0l-1,2c-2,1 -3,-1 -2,-3l0,-2c0,-1 3,-5 4,-4l0,1c0,3 1,2 1,-1l1,-5c2,2 3,-3 1,-5l0,-14c0,-3 1,-2 1,5l0,7l1,-7c0,-6 1,-8 1,-2l1,4l0,3c1,2 2,4 3,3l3,-3l1,-2l2,-3c1,-3 3,-3 3,0c0,8 2,10 2,3l0,-4c1,8 1,10 2,9s2,-1 2,1c1,2 2,2 2,0s1,-2 2,-2l2,-3l0,-1l-1,-1l0,-2l1,3c1,4 2,5 2,1s1,-5 1,-3l1,1l0,5l-1,1l0,2l-1,1l0,1l-1,1l2,-1l2,-4c0,-2 2,-3 4,-2l2,-4l0,-2l-1,-2l2,-2l2,-3l0,-1l1,-4l-1,-3l0,-2a40,40 0 0 0 -14,-13l-9,-4l-2,0l-4,-2a62,62 0 0 0 -31,3l-1,1l-4,2l-1,0l-2,1l-1,1l-1,0l-5,4l-1,2l-3,2l-3,3l0,8l2,2l3,5l1,7c0,6 0,8 1,7l0,-7c0,-6 0,-8 2,-7l0,4c0,5 1,6 2,5l0,-3l1,-4l0,-1l1,1l1,3l-1,2l0,11l1,1l0,-4l2,-14c1,-1 2,2 1,3l0,2l2,10l1,-7c0,-8 0,-8 1,-7l0,3l1,8c0,8 1,9 2,6l0,-18c1,-2 2,-1 2,8c0,8 0,9 2,6l0,-15l7,7l0,10l-1,2l-6,6l-1,3l-7,0c-1,2 -1,2 -5,3c-15,0 -31,0 -30,-2l0,-5l2,-9l1,-4l0,-3l1,-2l0,-2l1,-2l0,-2l1,-1l1,-2l0,-1l1,-2l1,-4l2,-3l0,-1l1,-1l3,-4l1,-3a145,145 0 0 1 23,-25l3,-3l3,-2l6,-3l3,-3l4,-1l1,-1l4,-2l2,0l1,-1l4,-2l2,0l2,-1l1,0l2,-1l3,-1l2,0l2,-1l5,0l9,-2l5,0l0,2m18,-1l3,1l5,0l3,1l2,1l8,2l2,1l2,0l4,2l1,0l1,1l2,1l1,0l1,1l1,0l1,1a59,59 0 0 0 13,8l3,3a122,122 0 0 1 29,34l0,3l4,7l0,2l1,2l0,2l1,1l1,2l0,3l1,3l1,4l0,1l2,10l-1,1l1,2c1,1 -1,1 -17,1l-87,0l0,-101l11,0m101,17c2,4 1,7 -3,5l-2,-1l-3,-3c0,-4 5,-4 8,-1m15,5l2,3l3,7l2,3l1,1l0,2l1,2l0,1c2,1 1,3 -1,4c-1,0 -2,0 -3,-2l-2,-5l-7,-5l0,-1c2,0 2,-3 -1,-4c-2,-2 -2,-2 0,-5c2,-2 3,-2 5,-1m-270,13l-2,1l-3,1l0,2l-1,1l-1,3l-3,7l-2,7l-1,3l-1,2l0,2l-1,2l0,3l-1,2l-3,12l-1,1c-1,1 0,2 3,2c2,0 3,-1 3,-3l2,-4c0,-2 1,-2 2,-1l3,0c3,0 3,1 2,2l-1,3l0,1l3,1l3,-1l4,-2l1,0l3,-1l3,-2l2,0l1,-1c2,0 2,-2 0,-3l-3,0l-1,1l-6,3c-1,0 -3,-6 -1,-6c1,0 2,-1 2,-4l1,-3l8,0l1,-1l2,-1c3,0 0,-2 -5,-3l-18,-5l0,-2l3,-7l2,1l1,1l1,0l2,1l2,0l2,1c11,5 11,5 14,3l2,-2l-4,-2l-1,0l-1,-1l-4,-1l-3,-2l-2,0l-4,-2l-1,-1l-2,0c-1,0 -2,-4 0,-5c1,-1 0,-3 -1,-2m159,0l-2,0l-2,2l-2,0l-1,1l-2,0l-3,1l-1,0l0,57l2,0l1,-1l9,-3a37,37 0 0 1 18,1l1,1l3,1l2,1l5,-2l1,0l2,-1l3,0l2,-1l13,0l2,1l3,0l4,2l2,0l1,-2l0,-52c1,-1 -1,-2 -3,-2l-3,0l-2,-2l-2,0l-2,-1c-2,-2 -10,-2 -11,-1l-1,1l-2,0l-1,1l-2,0l-4,2l-9,0l-3,-1l-1,-1l-2,0l-1,-1l-1,0l-2,-1l-9,0m8,3l2,0l3,2l3,1l1,0l-1,1c-2,0 -2,1 -1,2l3,-1l2,-1l2,0l-3,46l-2,-1l-2,0a84,84 0 0 0 -21,1l-5,2l0,-47s1,-2 2,0l4,0l0,-1l-1,0l1,-1l2,-1l1,-1l1,0l1,-1l4,-1l4,1m40,0l3,2l1,0l3,1c3,1 4,2 3,10l-1,38l-3,-1l-1,0l-3,-1a55,55 0 0 0 -19,1l-2,0l-2,1l-2,0l0,-47l1,0l4,2c2,-1 3,-1 1,-2l0,-1l1,0l3,-1l2,-2l2,0c2,-2 6,-1 9,0m5,4c-2,0 -2,1 -1,1l3,0l-2,-1m-56,0l0,1l3,0l-3,-1m6,0c-1,1 2,2 3,1l1,-1l-4,0m5,1l3,1c2,-1 1,-2 -1,-2l-2,1m26,0l1,1c2,0 3,-1 2,-2l-3,0m6,0l2,1l1,0l-3,-1m5,0l1,1l3,0l-4,-1m-53,10c-1,1 0,2 1,2s3,-1 2,-2l-3,0m5,0l1,2c1,1 3,-1 3,-2l-4,0m6,0c0,1 1,2 2,1l2,0l-4,-1m5,0l1,2l1,1l1,-1l1,-2l-3,0m6,0c-1,1 0,3 1,3s3,-2 2,-3l-3,0m14,0l0,2l1,1l1,-1c2,-2 2,-3 0,-3l-2,1m5,0c-1,1 1,1 4,1l3,0l3,-1l-10,0m12,0c-1,1 0,1 1,1l2,-1l-3,0m6,0l0,1c1,1 3,0 3,-1l-3,0m-215,10c4,1 5,2 4,8c0,2 -2,3 -3,2l-1,0l-6,-2l1,-6l1,-1l1,-2l3,1m161,0l0,1l1,1l1,-1c1,-1 1,-1 -1,-1l-1,0m11,0l1,1l2,0c0,-1 -1,-2 -3,-1m32,0l-1,1l4,0l-1,-1l-2,0m-49,0l2,1c2,-1 1,-1 -1,-1l-1,0m11,0l1,1c2,0 4,0 3,-1l-4,0m11,0c-1,1 0,1 2,1l3,-1l-5,0m15,0l2,2l2,-2l-4,0m5,0l0,0m11,0l1,1l3,-1l-4,0m7,0l0,1l3,-1l-3,0m-112,2l0,1l-1,1l-1,2l0,1c0,1 -2,3 -3,2l0,-4c0,-3 1,-4 3,-4l2,1m3,2l-1,0l1,-1l0,1m-19,0l1,3l-3,-3l2,0m195,1l2,2c1,3 3,3 5,2l2,-2l1,0c1,-1 2,0 2,2l1,3l-4,3l-3,1c-2,1 -7,-3 -7,-5l-1,-1l-1,-6c1,-1 2,-1 3,1m-198,1l1,2l1,1l3,4l-3,-2l-2,-3l-1,-2c0,-1 0,0 0,0l-1,-1l2,1m19,3l-2,2l0,1l-2,3l0,-2l1,-2l2,-2l0,-1l1,-1l0,2m23,-1l-1,3l0,-3l1,0m3,3l-1,3l0,-6l1,3m-15,3l-1,1l0,-1l1,-2l0,-2l0,5m41,-5l0,1l4,0l-4,-1m5,0l1,1c1,1 4,0 3,-1l-4,0m6,0l0,1l4,0l-4,-1m5,1l3,0c2,0 1,-1 -1,-1l-2,1m6,0l3,1l1,-1l-4,0m15,0l0,1l3,-1l-3,0m5,0l2,1c1,0 3,-1 2,-2l-4,1m6,0l0,0m5,0l0,0m6,0l0,0m-124,5l0,3l0,-3m28,3l0,5l1,-3l0,-4l-1,2m74,1c-1,1 0,2 2,2s2,-1 1,-2s-2,-1 -3,0m6,0c-2,1 -1,2 1,2c3,0 4,-1 2,-2l-3,0m17,0c-1,1 0,2 2,2c2,-1 2,-2 0,-2l-2,0m-54,0c-1,1 -1,2 1,2s2,-1 2,-2l-3,0m17,0c-3,1 -1,2 2,2l2,-1l-4,-1m26,0c-2,1 -1,2 1,2s2,-1 1,-2l-2,0m-49,1l2,1l2,-1l-4,0m12,0l2,1l1,-1l-3,0m5,0l2,1c2,-1 2,-2 0,-2l-2,0m37,0c-1,1 0,1 1,2c2,0 2,-1 2,-2l-3,0m-113,3l0,3l1,-2l-1,-1m8,8l-1,-1l1,0l0,1m2,2l0,2l-1,-1l0,-3l1,2m-23,4c-1,1 -1,0 -1,-1l1,0l0,1m-96,3l-1,1l-2,1l-1,1c-3,4 -4,10 -1,14l1,2l3,3l1,0l1,1l2,0c1,1 6,0 7,-1l1,0l4,-4l2,-4l0,-3c2,-1 -4,-11 -6,-11l-1,-1l-10,1m301,0l-4,3l-2,2l0,3c-1,8 0,10 4,13l1,1l2,1l8,0l3,-2l2,-1l1,-2c3,-3 2,-14 0,-14l-1,-1c-2,-3 -12,-6 -14,-3m-236,5l30,0a68,68 0 0 1 12,0l35,0c11,0 12,0 11,1l0,15c0,12 0,12 -2,12l1,1l1,0l0,3l1,4l-1,2c-1,1 0,3 1,3l-1,3l0,57l-11,0l-8,-2l-3,0l-4,-2l-3,0l-1,-1l-2,0l-24,-12l-10,-8l-12,-12l-3,-4l-3,-3l-1,-2l-3,-3l-2,-4a67,67 0 0 1 -6,-13l-2,-5l0,-2l-1,-2l0,-1l-2,-6l0,-2l-2,-11l0,-5c-1,-1 2,-2 7,-2l8,1m110,0l37,-1a2229,2229 0 0 1 51,2l0,6l-2,12l-1,3l0,3l-5,12l0,1l-5,10l-1,1l-4,6l-1,2l-3,4a144,144 0 0 1 -28,25l-3,2l-3,1l-1,1l-5,2l-4,2l-2,0l-2,2l-2,0l-2,1l-2,0l-3,1l-2,0l-2,1l-4,1l-8,0l1,-4l8,-10l2,-1l1,-2l7,-6l8,-4l3,0l2,1l1,1l1,-1l2,-1l2,0l5,-1l5,0l3,-1l2,-1l2,0l1,-2l3,-3c3,-2 3,-4 0,-4l-2,-1l-1,-1l-22,2l-2,2l-1,0l-15,10l0,-2l12,-12l2,-1l6,-1l5,0l2,-1l1,-1l4,-2l1,0l3,-1l4,-2l2,0l2,-1l1,0l6,-3l4,-5l4,-7c0,-4 -1,-5 -3,-3l-1,0l-5,-2l-5,0l-8,3l-2,0c-2,1 -4,1 -2,-1l2,-2l0,-1l1,-2l0,-2c2,0 2,-1 2,-3l1,-2l1,-1l0,-2l1,-1l0,-1l1,-3l0,-3l-2,-1l-2,1l0,1c-1,0 -5,1 -6,3l-1,0l0,-3c1,-1 0,-2 -2,-1l-1,1l-1,0l-5,4l-1,0l-2,2l-5,3c-2,1 -5,4 -5,6l-2,3c-3,3 -3,3 -3,5l-1,3l0,11l-3,3l-3,4c-2,0 -3,1 -3,2l-1,2l0,1l-1,2l-1,1l0,1l-1,1l-1,2l0,1l-1,1l0,1l-1,1l-3,6c-1,0 0,0 0,0l-3,6l-1,1l0,2l-1,3l-3,3l0,-5l1,-2l1,-1l0,-2l1,-1l0,-1l1,-2l1,-1l0,-1l2,-4l0,-2l2,-2l0,-2l1,-2l0,-1l1,-2l1,-1l0,-2l1,-1l1,-2l0,-2l2,-4l0,-2l1,-1l0,-2c2,-2 0,-9 -2,-11c-3,-2 -9,-1 -9,3l0,1l-1,2l0,2l-2,5l0,2l-1,3l0,3l-2,6l0,-16a878,878 0 0 1 0,-41c-1,-1 0,-1 7,-1l8,0m-63,2l-2,1l-2,0l3,1l2,-1l3,0l-4,-2l0,1m5,2l1,3l0,1l3,2l-1,-1l-1,-2l0,-1l-2,-2m-11,2l-2,3l-2,5l1,0c0,-1 3,-4 4,-3l2,0l0,-5l-1,-1l-2,1m15,5c-1,2 0,3 1,3l0,-3c0,-2 -1,-1 -1,0m-10,1l1,0l4,2l-3,-3l-2,1m111,0l-2,5c-2,2 -6,1 -5,-1c2,-3 5,-5 7,-4m-115,1l0,1l1,1l2,-2l-3,0m105,4l-1,3l-4,4l0,-8l1,-2c3,-2 3,-2 3,3m-95,-2l0,5c1,1 1,-1 1,-2l0,-3l-1,0m-12,0l1,1l1,-1l-2,0m-14,1l-3,3c-1,0 -2,0 -2,2l0,1l-1,4l2,-1l1,-1c3,0 5,-4 3,-5l0,-2l5,0l1,1l2,1c0,2 2,2 2,1l-4,-4l-6,0m12,0c-1,2 0,2 1,2l0,-2l-1,0m20,-1l0,15l1,-1l-1,-14m81,3l1,1l0,2l1,2l-1,4c-2,2 -2,3 -2,1l-1,-2c-2,-4 -2,-3 -1,-5c1,-3 4,-5 3,-3m15,3c3,0 0,3 -3,3s-4,0 -2,-2s3,-2 5,-1m-118,2l1,1l0,-2l-1,1m98,1l0,2c2,0 1,6 0,7c-1,2 -3,2 -3,0l0,-10l2,-1l1,2m-58,0l-2,1l2,1l3,0l2,1l2,0l1,1l2,-1l-1,0l-2,-1l-2,-2l-5,0m-24,1l0,2l1,-1l-1,-1m-28,1l-3,3l3,0l2,-2l5,0l1,-1l-5,0l-3,1m14,-1l0,3l1,-2l-1,-1m31,0l-1,1l-1,0l-1,1c-2,0 -7,5 -7,7l-1,1l-3,0l-3,3l-6,3l-2,0l1,-2l2,-2l0,-1l-1,0l-1,1l-1,2c-1,1 -2,2 -1,3l1,1l-1,1l0,-1l-1,-1l-2,0c0,-2 -2,-1 -2,1l1,0c1,-1 1,-1 1,1l-1,3c-1,1 -1,1 -1,-1l-2,0l0,1l-2,5l-2,2l0,1l-1,1c0,2 1,2 3,0c2,-3 3,-4 3,-7l1,-2l0,3l9,-9l1,0l2,-1l1,0l1,-1l1,0l4,-2l1,0l2,1l1,1l3,1l2,1l2,0l3,2l3,1l-5,-4l-1,-1l-2,0l-3,-1l-1,-2l-2,-1l6,-6l3,-2l1,0l1,-1l0,-1l-1,0m82,1l-1,4l-5,1l-5,-2l3,-3l8,0m-101,1l0,1l-1,2l-1,1l0,1l-1,2c0,1 1,1 1,-1l2,-2l0,-1l1,-2l-1,-1m-18,1l-1,12l0,1l-2,5l2,-2l0,-2l1,-1l0,-2c2,-1 2,-12 0,-12l0,1m-14,1l0,2l1,-1c0,-2 0,-2 -1,-1m21,2l0,6l1,-4c0,-4 -1,-6 -1,-2m189,1l-1,1l-1,3l-2,2l0,2l-1,1l-2,4l-1,1l0,1l-2,2l-3,7l-3,3l-2,3l-1,2l-2,-1l-1,-2c-1,-1 -3,-1 -4,1s1,3 2,2l1,-1l1,1c2,1 2,2 1,3c-2,2 -1,5 1,3l1,1l1,2l0,6l-1,2l0,2l-1,1c0,1 0,2 -1,1l-1,-1l1,-2l0,-5l-3,0l0,-3c1,-1 1,-1 2,1c0,1 1,1 1,-1l-3,-3l-2,2l0,2l-1,2c-1,-1 -2,0 -2,1l-2,1l-1,1l-2,3c-4,5 -5,7 -2,6l2,0l0,6c0,1 1,5 3,5l1,-3c0,-4 3,-6 4,-2l1,2c1,0 2,-3 1,-4l-1,-1l0,-2l-2,-6l0,-5c1,-1 1,-1 2,1l1,1l0,3c0,2 0,2 2,3l1,1l2,-1l2,-3c0,-2 1,-3 2,-1s1,0 1,-2l0,-3l-1,-1l-1,-2l0,-2l-1,-3l0,-4l1,-2l1,0l1,1l0,2c0,4 4,4 6,1c0,-2 3,1 3,3s1,3 1,1c1,-2 1,-2 1,1c0,2 -1,4 -4,5c-3,0 -2,1 1,1c2,0 5,-2 5,-4l1,-1l-1,-6l-2,0l-2,-2l-1,-2l0,-2l-1,-2l0,-2l-1,-2c-2,-1 -1,-5 1,-7s3,-1 2,1l0,3c-1,2 0,3 5,5c3,1 4,-1 0,-2l-2,-1l0,-3l-2,-8l2,-4l2,2l1,2l1,1l0,2l1,1c0,2 1,3 2,3l0,-5l-1,-2l-1,-1l0,-2l-2,-4l0,-6l-1,1m-120,0c2,1 2,2 2,6l0,4l-1,2l0,2l-3,7l0,2l-2,2l0,3l-1,2l-1,1l0,2l-1,2l-1,1l0,1l-1,2l0,2l-2,2l0,1c0,2 -1,3 -2,2l0,-3l1,-5l0,-5l1,-4l0,-3l2,-6l0,-3l1,-2l0,-3l1,-2l3,-9c1,-2 2,-2 4,-1m21,1l0,5l-1,2c0,1 -1,2 -2,1c-2,-2 -2,-6 -1,-7l1,-2c0,-1 2,-1 3,1m36,-2l-2,7l-4,0c-1,-2 4,-9 6,-7m-24,1c2,1 2,3 1,4c-2,1 -6,-1 -6,-2l3,-2l2,0m31,0l1,0c2,0 2,2 0,5c-2,1 -6,0 -6,-1c0,-3 3,-6 5,-4m-229,1l0,9c-2,1 -2,2 -1,3l0,2c0,2 0,4 2,4c1,0 3,6 1,8l0,1c1,1 1,1 -2,1l-1,6c0,3 1,5 2,4l0,-6l1,0c0,1 1,1 1,-2l1,-2l0,-1l2,-4l0,-2l1,-2l1,-1l0,-1l1,0l1,1l0,4l-1,2l0,7s2,-1 2,-3l0,-2l1,-1c0,-2 0,-3 1,-2l1,2l0,7l-3,0c-2,-1 -2,-1 -2,1s1,2 2,3l0,6c2,2 2,2 2,-1l1,-2l3,-8l9,11l0,5c-1,1 -1,-1 -2,-3l-2,-1l-5,-5l0,8l1,-1c1,-1 2,0 2,1l0,6l2,5c1,1 0,2 -2,2l-2,1l3,2c2,0 3,1 3,2l1,2l0,-5l1,-5c-1,-3 -1,-4 -2,-2c0,2 -2,1 -2,-2l1,-5l3,3l2,1l0,-2c0,-1 1,-2 3,-2s1,0 0,-1l0,-1l-1,-2l-2,-2l-2,-4l-2,-2l-3,-4l-2,-4c0,-2 -2,-3 -2,-3l-1,-2l-2,-1l-2,-4l-2,-2l-1,-2l0,-1l-1,-2l-1,-1l0,-1l-1,-1l0,4c1,2 0,6 -2,7s-3,-5 -2,-6l0,-6l-1,0l-1,-1l2,-2l0,-3l-2,0m112,0l0,1l1,-1l-1,0m102,1l0,3l-1,2c0,2 -2,3 -3,3c-2,0 -4,-1 -3,-2l2,-5l1,-1l4,0m-23,3l2,1l0,3l-2,1l-4,0l2,-6l2,1m14,1l-1,3l0,3c0,2 -6,3 -6,0c0,-1 5,-7 7,-7l0,1m-110,1l0,1c1,1 1,0 1,-1l-1,0m129,1c2,1 2,2 1,3c-3,2 -6,1 -6,-1c0,-3 3,-4 5,-2m-8,2c3,3 0,7 -3,4l0,-3c2,-2 2,-2 3,-1m-21,4l0,1c0,2 -3,4 -4,4c-2,1 -2,0 -1,-2l1,-3l2,-2l3,-2l0,2l-1,2m-180,-2l0,5l1,2c0,3 0,4 1,3c1,-3 -1,-12 -2,-10m194,1l0,3c-5,2 -7,1 -4,-2c2,-2 2,-2 4,-1m-81,1l0,2l1,-1l0,-1l1,-1c-1,-1 -1,-1 -2,1m61,0l0,2l-1,2l-4,2l-1,1l-3,2l-2,2c0,-1 3,-8 5,-9c2,-2 3,-3 4,-2l2,0m-106,2l0,2l2,-2l-2,0m118,0l1,2l0,1c2,2 -5,4 -6,2l1,-4c2,-2 3,-2 4,-1m-60,2l-2,1l-1,1l-1,0l-2,1l-4,1c-3,-1 -4,0 -4,1l-1,1l0,1l-1,2l0,1l2,-2c0,-2 2,-3 5,-3l3,0l1,-1l2,-1l4,-4c0,-1 -1,-1 -2,1m-15,0c-1,2 0,3 2,2l1,0c1,1 2,1 3,-1c1,-1 1,-1 -1,-1l-3,-1l-2,1m51,2l-1,1l0,1l-1,0l1,-1l0,-1l1,-1l0,1m11,2l-3,2l-7,7l4,-6l2,-1l1,-1l1,0l0,-1l2,0m-118,2c0,1 2,2 3,1l2,0c3,-2 5,0 2,2l-1,2l0,1l-1,4l0,3l44,-2l2,-1l3,-3c2,-1 2,-1 1,-2l-4,3l-2,1l-1,0l-4,2l-38,0l0,-1l1,-2l0,-2l1,-2l1,-1l0,-1l2,-2c2,-1 0,-1 -5,-1l-6,0l0,1m105,-1l-1,1l0,-1l1,0m101,2l1,2l0,4l-1,3l-1,0l-1,-1l0,-2l-1,-3l0,-1l1,-2l1,-1l1,1m-103,1l-1,2l0,2l-2,8l-5,7l0,1l-2,2c0,1 0,1 0,0l0,-1l1,-1l0,-1l1,-2l0,-1l1,-2l1,-1l1,-2l0,-3l1,-2l0,-1l2,-4l2,-2l0,1m39,3l-1,2c-2,1 -3,0 -2,-2s3,-3 3,0m-6,0c0,3 -4,6 -4,3c-1,-1 1,-3 2,-4c2,-1 2,-1 2,1m11,0c2,2 1,3 -1,3c-3,0 -3,0 -2,-2s2,-2 3,-1m-90,1l2,1l0,-1l-2,0m73,0l-2,4c-1,1 -3,-1 -2,-2l2,-2l2,1m-70,1l0,0c0,-1 0,0 0,0m64,0l-5,5l1,-3c2,-2 3,-3 4,-2m19,2c2,1 1,2 -1,1l-2,0c-1,-2 2,-2 3,-1m-6,0l0,2c-2,0 -3,-1 -2,-2l2,0m-6,2l-1,1c-2,1 -3,0 -1,-2c2,-1 2,-1 2,1m-197,0l0,3c1,1 1,0 1,-1c0,-2 0,-3 -1,-2m192,0l0,3l-4,0l3,-3l1,0m-107,4l1,1l12,1l-5,-2l-8,0m-84,1l1,4l1,-2l-2,-2m171,0l-2,3l1,-1l0,-1l1,-1m-5,1l0,1l-1,-1l1,0m-56,1c-1,1 0,2 5,2l6,0c2,1 4,0 2,-1l-13,-1m55,1l-1,1l0,-2l1,1m-2,2l0,2l-1,1c0,2 -3,5 -3,4l0,-1l4,-6l1,0m-66,3l0,0m154,4l1,2l-2,4l-1,0l-1,-2c-1,-2 0,-6 2,-6l1,2m-221,-1l0,1l1,2l2,3c4,3 4,4 3,6l-1,1l-1,-3c-2,-2 -3,-2 -4,-1l0,2l1,2c0,2 1,3 2,2l1,0l0,12l2,-3l1,-3l0,-3l2,-5l1,0l1,3l-2,7l0,9l1,-2l1,-3l0,-3l2,-6c0,-2 1,-2 3,0l1,4l0,2l-2,0c-1,0 -2,1 -1,2l1,4c0,3 1,4 1,2l2,-2l2,-7c2,-2 5,3 3,6l-1,3l0,10l2,-6l1,-4l0,-3l1,-2l1,0l2,2c2,1 2,4 0,4l-1,2c-1,5 1,11 4,11l0,2c0,2 1,2 2,3l2,-6l0,-4c0,-5 1,-6 2,-5l1,2l0,10l1,3c3,4 5,3 5,-2c1,-7 2,-9 4,-8l-1,11l0,7c2,1 3,-1 3,-6l0,-5l1,-2l0,-3l1,1l1,0l0,-1c0,-2 -2,-5 -4,-5l-3,-1l-2,-2l-1,0l-1,-1l-3,-1c-2,0 -3,-3 -4,-3l-2,-2l-1,0l-13,-10l-20,-18m129,5l-1,-1l1,0l0,1m72,10l-1,0l-9,8l-2,1l-2,2l-2,1l-3,2l-2,2l-8,4l-2,2l-13,6l-7,2c-3,2 -5,2 -5,-1s5,-5 6,-3l3,0l-2,-2l-1,0c-1,-1 -6,-2 -7,-1l0,9l-7,2l-2,1l-3,1l-4,0l-4,1l-15,1c-1,-1 -2,-2 -1,-4c0,-2 1,-3 3,-2l3,3l2,0l-4,-5c-3,-3 -7,-1 -7,4l-1,4c-1,1 -1,2 1,3l0,2l1,15c1,4 1,2 1,-7c0,-10 0,-10 2,-10l2,1l2,0l3,-1l2,0l0,1l-1,2l-3,-1l-2,1l-1,3l0,5c1,3 4,5 5,3c1,-1 3,0 3,2l1,1c1,0 2,-2 1,-3l-1,-14c1,-1 3,0 3,2l2,4c1,1 2,3 1,4l0,1l-1,-1l-2,0c-1,2 0,5 2,5l1,2l3,3l-1,-3l0,-1l-1,-1l1,-2l1,-3l1,-1l0,-9c-1,-1 8,-4 9,-3s0,3 -2,3c-6,0 -6,9 -1,12l1,1l2,-2c1,-2 1,-2 1,0s1,3 2,3s2,-5 1,-7l0,-12l1,2l1,1l0,7c1,6 1,8 3,7l0,-5l-1,-7c0,-6 0,-6 4,-7l2,-1c2,-2 4,-1 4,1l0,2l-2,-1c-4,0 -5,1 -5,6c0,4 0,4 2,5c2,2 4,2 5,-1l1,2l1,1c2,0 2,-3 1,-8c-1,-7 0,-11 2,-11l4,0l-1,1c-3,0 -4,5 -2,7l0,3c0,2 2,4 3,5l3,0l4,-3c2,0 2,-1 1,-4l-1,-5l0,-6c-1,-3 -1,-4 1,-4c1,0 2,2 2,7l0,4l2,5c2,1 2,-2 1,-4l-1,-3l0,-3l-1,-5l0,-3l4,-2l2,-2l3,-2l2,-1c2,1 2,3 0,4l-4,2c-3,0 -3,1 -3,6l0,5l3,3l3,0l-2,-3c-3,-2 -3,-3 -3,-4c0,-3 3,-5 3,-2c1,1 2,1 2,-1c1,-5 4,-4 4,2l0,3l1,0c2,0 2,-4 1,-6l-1,-4l-1,-2l0,-2l1,-4l2,-1l1,-1l0,3c-1,4 -2,4 -1,5l1,1c0,3 4,3 6,1c0,-2 1,-2 1,-1s2,3 3,2s0,-2 -1,-4l0,-4l-1,-3l0,-9l-2,-1m-1,8l0,7l-3,4l0,-4l1,-1l0,-7c1,-1 2,-1 2,1m9,3l0,4l1,4l0,2c1,0 2,-7 1,-9c0,-2 -2,-2 -2,-2m-175,9c2,2 0,9 -3,9c-2,0 -3,-5 -1,-5c1,0 2,-1 2,-3s1,-3 2,-1m-18,1l0,5c1,1 2,0 2,-3l-2,-2m28,5l-1,9c-2,2 -3,-1 -2,-5l1,-4l2,0m25,0c0,2 0,4 2,4c1,0 2,-3 0,-4l-1,-1l-1,1m101,3l0,11l-1,1l0,1l-1,2l-2,0l0,-3c2,0 3,-2 2,-4c0,-1 -1,-1 -2,1c-2,1 -3,1 -3,-1l2,-2c2,0 4,-3 3,-5c-1,-1 0,-2 1,-2l1,1m-112,1l1,3l1,1l1,3c0,1 0,0 0,0l-1,2l0,7c1,2 1,2 2,1l4,0l0,3c0,2 1,5 2,4l0,-6c1,-12 1,-12 11,-8c1,0 0,2 -3,2l-2,0l0,5l1,2l3,3c2,0 2,1 1,2c-1,2 -2,1 -4,-1l-3,-2l0,2l1,1c0,2 3,4 4,4l1,0c2,1 5,-4 3,-5l0,-2c0,-2 -1,-3 -4,-4c-3,0 -2,-2 1,-2l3,0l0,-1c0,-3 1,-4 3,-3l3,1l3,0l3,1l2,1c0,2 -1,3 -2,2l-2,0l-2,-1c-2,-2 -3,-1 -5,2l0,7l1,3l3,3l0,-2l-1,-1l0,-3l-1,-3l0,-3l1,0c2,0 2,0 2,2l0,2c1,1 2,1 2,-1l3,-3l0,11l2,2l0,-7l1,-7c1,-1 0,0 -1,-1l1,-3c3,-3 1,-4 -4,-4l-7,-2l-4,0l-2,-1l-2,0l-2,-1l-3,-1l-2,0l-2,-1l-6,-2l-5,-1m8,6c2,1 1,8 -1,8s-3,-9 0,-9l1,1m91,6l-3,4c-1,1 -2,-2 -2,-3l1,-2c0,-1 4,-1 4,1m-29,2l0,5l-2,-2l0,-4c1,-1 2,-1 2,1m11,2l0,3c-2,3 -3,3 -4,2s-1,-3 0,-3l0,-2l4,0m-68,3l0,2l1,-1l-1,-1m47,2l-1,1l-1,2c-2,2 -4,1 -4,-2s4,-4 5,-1"/></g></svg>