<svg xmlns="http://www.w3.org/2000/svg" viewBox="0 0 400 400"><path fill="#fbfbfc" d="M197 11l-17 2 20 1a108 108 0 0 1 28 2h4l21 5 2 1h2l2 1h2l1 1 3 1h2l1 1h1l4 2 3 1 1 1h2l1 1 2 1 5 2c2 0 3 2 3 2l10 6a185 185 0 0 1 32 24l4 5a78 78 0 0 1 11 12l18 25v1l1 1v1l1 1 11 24v2l2 3 1 4 1 2v3l1 2v2l1 2 1 3v3l1 2 1 5v4l1 5a130 130 0 0 1 1 30l-1 20-10 36-1 1v2l-1 3-1 1v1l-2 2s0 3-2 5l-10 20a54 54 0 0 1-6 8l-1 2-1 1-13 17-2 1-1 2-1 1-2 1-5 5a75 75 0 0 1-11 9l-1 1h-1a125 125 0 0 1-27 18l-28 12h-2l-19 6h-3l-3 1h-4l-8 2-20 1a265 265 0 0 1-51-6l-1-1-4-1-2-1h-2l-2-1h-2l-1-1-2-1h-2l-2-1h-1l-3-2-3-1a102 102 0 0 1-16-8l-2-1-3-1-3-3h-2l-1-1-7-5-2-1-1-1-4-3-2-2h-1l-3-3-2-1-12-12a75 75 0 0 1-10-11h-2l-2-2-4-6h-1l-2-3-1-2-2-2c-1 0 0 0 0 0l-3-6-1-1-1-3-1-2-1-1-3-6-1-1-1-2v-2l-2-2-2-5v-1l-3-7-1-4-2-5-1-3v-2l-1-3-1-2v-2l-1-3v-4l-3-12-1-15-1 8v8l-1 3 1 3v2l1 2v1h1l1 2v2l2 5v3l-1 2v3h3v4l1 1v2l2 4v1l1 2v3l3 7h1l1 1 1 2v2l1 3v3l1 1 1 2h1l2 2 1 2v1l1 1v1l2 2v1h1l1 1v1h1l1 4v3l1 1 5 3 1 1v1l1 1v1l6 6v1l6 6 1 2 1 1 2 1 1 1v1l1 2v2h3l2 1 5 5 2 1h1v1l1 1h1v1c0 1 0 0 0 0l-1 2 1 2 1-1h5c-1 0-1 2 1 2l1 1v1h1l2 1h2l2 2h1l2 2 4 2h1l1 1h1l2 2h1l2 1c-1 0-1 3 1 3h1l4 1h3l2 2 2 1h2v-1l1 1h2l2 1v1h1l3 1 2 1h2l4 2h2l3 1h3l4 2h3l6 2h4l8 2h7l6 1h4v-1l1 1 29-1 42-10 1-1h3l3-1 10-5 3 1 3-1h1l2-2v-4h5v-1l2-1 1-1h1v-1l2-1h2l1-1 2-1 1-1h1l1-1h1l1-2 2-2h1c2 0 2 0 2-2s0-1 1-1h1l1-1v-1h2l2-2 2-1v-1l1-1h4v-4h2l2-2h1v-1l1-2c0-1 0-1 0 0 0 2 3 2 3 0l-2-2 2-1 4-4 2-1 1-2c-1 0-1 0 0 0v-2l3-3c0-1 0 0 0 0l3-3v-1l2-2v-1h1l1-1v-1l1-2 1-1h1v-1l1-2v-2l1-1h1l1-1v-1h1v-1l6-6v-3l1-2v-1l1-1h1v-1l1-3v-3l1-1h1l1-4v-3l1-1v-1l2-4h1v-4l2-6 2-11 2-4v-3l1-4v-5h2v-7l-1-1 1-2-4-54-1-3v-2l-4-15-1-2 1-1v-1l-1-2-2-2v-1l-1-1v-2l-2-2-1-2v-1l-1-2v-2l-1-1-1-2v-2l-1-2v-3l-1-1-2-1h-1v-1l-1-1v-1l-1-2v-3h-3v-1l-1-1-1-2v-1l-2-1-1-2v-2l-1-1h-1v-1l-2-2v-1l-1-1h-1v-1l-1-1c-1 0 0 0 0 0l-2-2c0-1 0 0 0 0l-1-1-1-2-1-1-1-2v-3h-1l-1 1h-1c-1 0 0 0 0 0l-1-1v-3l-1-2h-2l-3-1-1-1v-1h-1l-1-1c-1 0 0 0 0 0l-2-2h-1l-4-4c0-1 0 0 0 0l-1-1h-1l-2-1 2-1 1-1-1-1-2-1-1-1h-1l-3-1h-2l-1-1v-1h-1l-1-2 2-2-3-3c-2 0-2 0-2 2l1 1h1l-1 1-2-1h-1l-1-1h-1v-1l-2-1h-2l-3-3v-1l-1-1c0-1-3-2-4 0v-1l-1-1h-2l-2-1h-1l-1-1-2-1h-2l-2-2h-1l-1-1-2-1h-2v-1l-1-1-2-1h-1l-1 1-1-1v-2h-8l-2-2h-3l-3-1h-6v-2l-1-1-1 1h-4l-3-1-4-1h-4l-8-2h-5l-9-1-9 1m-35 2v1l-1 1h-3l-2 1-3 1h-2l-2 1h-2l-10 2-2-1c-2 0-1 2 0 2v1h-2l-2 2h-2l-1 1h-1l-4 2h-3v1l-1 1h-3l-2 1-1 1-2 1h-1l-4 2v1h-5v4h-3l-5 2-2 1-1 1v1l-2 2h-1l-3 3h-1l-1-1-2 5h-3l-2 1-1 1-2-2-1 2c0 2 0 1 1 1h1l-2 2-1 2v1l-1 1v1h-1l-2 2c-1 0 0 0 0 0l-1 1v1h-4v2l-1 2-1 1c0 1 0 0 0 0l-1 1h-2c-2 0-3 2-1 3h0v1l-1 2h-1c0 1 0 1 0 0 0-2-2-1-2 1l-1 2-1 1v1l-1 1v1l-1 1h-1v1l-2 1h-1l-1 1-1 2v2h1l-1 1v1h-1l-1 1c0 1 0 0 0 0l-1 2-1 1-2 1v2l-1 2v2h-1l-1 1v2c0 2 0 1-1 1v2l-2 2h-1v2l-1 2v1h-1l-1 1v1l-1 2v1l-3 3v1l-1 4v4l-2 2v4l-1 3v1l-2 2v2l-1 2 1 2v1l-2 5v2l-1 3-1 1v2l-1 3v4l-1 1 1 2v7l1 7 3-25 1-4v-3l1-2v-3l2-5v-2l1-2v-2l3-8c2-3 2-5 2-7l1-1 1-2v-1l1-1a39 39 0 0 1 4-8l1-2 1-3 2-2 1-2v-1l1-1v-1l4-5 2-5 3-3 23-27 4-3 23-18 6-4 3-1 2-2h2a130 130 0 0 1 23-12h2l2-1h2l1-1 3-1h3l1-1h2l4-2 3-1h2l22-4-5-1-4 1h-4l-2-1-2 1m20 7h-5l-5 1h-2l-41 12-2 1h-1l-1 1h-1l-2 1-1 1h-2l-1 1-3 1-2 2h-1l-1 1h-2v1l-3 2-5 2c-2 0-2 1-2 2h-1l-3 3-4 2-2 2h-1l-1 2-12 9-1 2-3 3-2 1-10 12-2 3-3 3-1 2-4 4-1 3-2 2-2 4a41 41 0 0 0-4 6l-5 9-2 6-1 1v2l-1 1-1 2v1l-1 2v1l-2 4v2l-1 3-1 2v2l-1 1v2l-1 3-1 2v4l-3 14-1 16-1 7 1 7v8a43 43 0 0 0 2 12v3l1 3v4l2 6v1l4 11v3l1 1 10 23 1 1 2 6h1v1l16 23h1l2 2 3 5 8 8 4 3 4 4a89 89 0 0 0 13 11l3 2h1l2 2 6 4h1l25 13 4 1 2 1h1l4 1 3 1 2 1h2l3 1 1 1h3l4 1 2 1h2l6 2h11a271 271 0 0 0 59-3h4l2-1h2l8-2 1-1 2-1h2l1-1h2l4-2 6-2 2-1c1 0 4-1 5-3l2-1 3-1 2-1 1-1 2-1h1l3-2 6-3 2-2 2-1 3-3 2-1 7-5a137 137 0 0 1 8-6l3-4a235 235 0 0 0 31-39l2-3 1-1 7-14v-2l1-1v-2l1-1 1-2v-1l1-2 3-9v-2l3-8v-3l1-3v-2l1-2 2-10a243 243 0 0 0-4-65l-1-3-1-2v-2l-1-1v-3l-1-2-1-1v-2l-1-3-1-1v-2l-2-2v-2l-1-2v-1l-1-2v-1l-3-4a36 36 0 0 0-5-9l-2-5a142 142 0 0 1-4-6l-1-1-1-2-1-1-1-2-1-1-21-23a112 112 0 0 0-18-15l-1-2-4-3h-2l-1-1-2-1-2-2-8-5h-2l-1-1-2-1-1-1h-1l-1-1-4-2h-1l-2-1h-1l-2-2h-2l-4-2h-2l-1-1-2-1h-2l-2-1h-1l-6-2h-2l-2-1-4-1h-3l-2-1-4-1h-3l-5-1h-43m78 20l11 12 1 3c-1 1-4-2-4-3l-2-2-3-2c-4-4-8-4-11-1-1 2 0 5 3 5h2l2 1 6 2 1 1 9 4 1 1h1l1 1h1l6 3 1 2 3 1 2 1 2 2 7 5 2 2 4 3 29 33 1 2 2 2 2 4 1 1v1l1 1 1 2v1l1 1 1 2v1l5 10v3l1 1 1 2v3l1 1v2l1 1 1 2 4 15 4-5v-6l1-1 4-2c2 1 2 6 1 7l-6 6-4 5-1 3c-2 2-4 3-4 1 0-3 0-3-3-3l-20 5c-1 2-3-1-2-3l1-2c0-1 1-2 3-2 2-1 2-1 1-2v-1l-2-2v-7l2-2 1-2 4-3c2-2 3-1 6 3 1 3 5 2 4-1v-3l-1-2v-2l-1-2-1-1v-3l-1-1h-4l-3 1-2 2-4 2h-1l-7 4h-2c-2 0-1-6 2-6l2-2h1l2-1h1l1-1c2 0 2-4 1-5l-1-1c0-2-5-4-6-2h-1c-1 0-4 3-4 5l-1 1v1l-1 1c-2 0-2-2 1-7l1-2 3-3c3-3 3-3 0-5-2-2-4-3-5-2l-4 4-4 2h-2v-6l2-1c1-1 1-2-1-3l-3-2-1-2-1-4 1-5 1-1c0-3 5-5 8-3l2 1c2 1 4 2 4 4v3c0 2 1 4 2 2l1-1c2 0 3-2 1-4l-1-2-2-2-12-14-8 8-3 4c-5 5-5 6-5 10l-1 7c-1 1-7 2-8 1l-4-4v-1l-3-7c-1-2-1-7 1-7l1 3 1 4v2l1 1 1 2 1 1h1l4 2c4 0 4-3 0-4h-2v-5h2c3 0 3-1 2-2s-1-2 1-5l3-2-2-2-2-1-1-1h-3l-1 1-1-1-1-11h2c3 0 3 0 7-4 1-2 0-4-2-4l-1-1c-1-2-8-5-8-4l-3 4v2l-1 1v1l-2 2-1 3v2l-2 2-1 2v1l-1 1v1l-3-4v-4c2-1 1-2-3-2l-3-1h-1l-5-5v-9l1-2 3-1 1-1h4l3 1 1 1h1l3 4 1 2c1-1 3-4 2-5l-4-2-3-2h-2l-2-1-1-1h-2l-1-1-3-1-3-2h-4l-2 4v2l-1 1v2l-3 7v1l-2 4c0 2-2 3-2 1l-1-1-1-4v-2l1-2 1-1v-2l1-2v-2l1-1 1-2c2-4 2-6 1-6-2 0-3-2-3-4s0-3 1-2l2 1h2l2-6v-1c0-2 7-4 11-2m-45 3l8 1 1 2-1 4c-4-2-5-1-5 5l-1 5v7c-1 8-1 8-4 5l-2-1 1-20c0-3 0-4-5-4l-4 1v14l1 10h-4l-2-4c0-2-2-3-4-1l-4 1h-4l-2-3-3-3-1-3c-2-2-1-4 1-4l5-3c0-3-5-4-7-3-1 1-5 0-5-2l-1-1v-1l16-2a189 189 0 0 0 17 0l9 1m-24 4c-2 1-2 2-1 3v2l1 2c1 1-1 3-5 4l-1 2c0 2 1 3 3 2h3l2-2 2-1c2 0 3-4 2-6l-1-4v-2h-5m-34 3l2 2v1h-1l-3 1c-1 0-2 2-1 5l3 8v2l1 3 1 1v2c2 2 1 4-1 4-2 1-4-2-4-3l-2-4v-3l-2-5-1-5c-1-2-3-3-5-2l-2 1h-1l-2 1c-2 1-2 2 0 5a53 53 0 0 0 5 9v1l1 2v1l1 1 1 2c3 2 2 3-2 3l-4 1-5 6h-11c-2 0-3-2-3-4l-3-3c-6-3-6-7-2-9l4-2c2-1 3-2 2-4l-4 3-3 1-1 1c-1 1 0 0 0 0l-5 3-5 4c-1 1-1 2 1 4l2 3 9 9c4 5 4 5 0 5h-1c-1 1-3 0-3-1h-1c-1-1-3 1-3 2l-4 5H92l-2-1c-2-3-3-3-3-6l1-2v-1c1-3 6-7 10-7h2l-2-3c-1-2-3-2-3-1l-9 9c-8 8-11 12-9 13l2 2 2 1 1 1 3 1c2 0 3 3 4 4l5 3 2 2-1 1h-7l-6-4-2-2-2-1-3-2c-2-2-2-2-4-1l-3 1h-3v-2l1-1v-3l-5-3-1-5v-1l1-2 7-7 4-2 3-1 2-1h4c2 1 0 2-2 2l-2 1-1 1-4 2-6 7 3 6 3-1 10-12a90 90 0 0 1 5-5l10-10 30-19 19-8h8m-27 14l-3 3 1 2c2 0 2 3 0 5l-2 1h-1l-2 1-1 1c-2 1-2 3-1 4 2 1 1 1 5-3 3-2 7-2 7 1l-3 4h-2l-2 4c0 1 2 2 3 1l4-2 2-3c3-2 4-6 3-8l-1-2-1-1v-2l-2-1-1-3-2-2h-1m131 6c-2 3-2 5 0 6h11c0-2-3-6-4-6h-7m36 12l-3 4-2 2 1 1 5 4c3 0 7-7 6-8l-3-2c-2-2-2-2-4-1m-79 6h3l4 1 31 11 1 1 8 4 6 5a145 145 0 0 1 28 31v1l1 2 2 2 2 5 1 1 7 20v2l2 7a140 140 0 0 1-3 47l-1 3v1l-1 1v2l-1 3-9 18-4 6-1 2-2 1-1 2-2 3a152 152 0 0 1-30 25l-3 2-24 10-16 3a188 188 0 0 1-39-2h-2l-2-1-3-1h-2l-2-1h-3l-1-1h-1l-21-11-6-4-1-1-2-1-10-9a109 109 0 0 1-24-36l-1-2v-1l-1-1-1-3v-3l-1-1v-1l-1-1v-3l-3-10v-30l1-6v-4l2-5v-2l1-2 2-6v-2l2-2v-2l2-4 1-3 2-2 1-3 2-3 1-1 1-2 4-5 1-2 2-2 2-3 3-3a134 134 0 0 1 30-22l2-2h1l6-3h2l2-1 1-1h1l14-4 10-2 30 1M99 97l-2 1c-3 0-4 6-2 8s5 2 5 0v-1l2-2v-2l1-2v-2h-4m86 0l-4 1h-5l-4 2h-3l-2 1h-1l-4 2h-2l-2 1-1 1h-2l-4 2-1 1-4 1-1 2-8 4-3 2-16 16a145 145 0 0 0-17 25l-1 3-1 2v1l-2 5-1 3v2l-1 1v3l-3 13v5c-1 2 15 3 30 2 4 0 4 0 5-2h1c2 1 6 0 6-1l1-3 7-7v-10l-7-8v15c-2 3-2 2-2-6s0-8-2-7v17c-1 3-2 2-2-6l-1-11c-1-1-1 0-1 7l-1 8-2-10v-2c1-2 0-5-1-3v3l-2 10v4l-1-1v-10l1-3-2-4v2l-2 6c-1 1-1 0-1-4l-1-5c-1-1-1 1-1 7v7c-1 1-1 0-1-6l-1-8-1-2-2-2-2-3v-7l1-2 2-1 3-3 1-2c0-1 0 0 0 0l5-4h1l1-1h2l1-1 4-2h1l2-1 3-1a57 57 0 0 1 26-1h2l4 2 5 1 7 5c2 0 11 9 11 11v1l1 4-1 3v1l-4 5 1 2v2l-2 5c-2-2-4-1-4 2 0 1 0 2-2 3l-2 1h1v-2l1-1v-1l1-2v-4l-1-2-1 3c0 4-1 3-2-1 0-3 0-3-1-2v1l1 1v1l-2 3c-2 0-2 0-2 2s-1 2-2 0c0-2-1-2-2-1-1 2-1 0-2-8 0-1 0-1 0 0v4c-1 7-2 4-2-4 0-2-2-2-3 0l-2 3-1 2-3 3c-1 1-2-1-2-3l-1-3v-4c-1-6-2-4-2 2s0 8-1 7v-7c0-6 0-8-1-5a37 37 0 0 0 1 15c1 1 0 6-2 5l-1 4c0 3-1 5-1 2v-2c-1-1-3 3-3 4l-1 2c-1 2 0 5 2 4l1-3c0-4 1-4 1 0 0 3 1 3 2 3v-1l-1-2 1-2v-2c0-2 1-3 2-2l-1 4c-1 1-1 2 1 2l1-1c0-2 1-2 1 0s1 3 2 1h1l4 3c1-1 1-1-1-4l-2-3h-1c-2-1 0-4 3-3v-2l-1-1-2-5c0-2 1-2 1 0l1 1 2 4 2 2 2 3 2 4 2 2-1 1v1h1c0-2 1-2 3-1l18 1h8l1-101h-10m17 2v19a140 140 0 0 0 0 19l-1 1 1 4v56l9 1 78-1c16 0 17 0 16-1l-1-14-2-7-1-3v-2l-1-1v-2l-6-14c0-1 0 0 0 0l-2-3-2-4-2-2v-2l-1-1a122 122 0 0 0-35-32l-2-1-1-1h-1l-2-1h-1l-2-2h-1l-4-2h-2l-4-2-6-1-5-2h-5l-4-1h-10v2m105 14c-2 1-1 5 2 5l2 1c3 1 4 1 4-2 0-4-5-7-8-4m17 7c-2 2-2 3 0 5s3 4 1 4v1l2 1c2 0 4 2 5 4l2 5c1 2 2 2 3 2 2-1 3-3 1-4v-2l-1-1v-2l-1-1-2-4-2-3-1-3c-2-4-4-5-7-2M61 133l-1 1c-1 1-1 5 1 5l2 2h2l4 2 4 1c2 0 3 2 3 2h1l5 3-2 2c-2 2-3 2-13-3l-6-2-1-1-4-2-3 7v3l2 1h2l2 1 7 2 6 1c4 1 7 3 4 3l-2 1v1h-9v2l-3 5 1 6 8-4h3c1 0 1 3-1 3l-1 1h-2l-3 1-2 2h-2l-1 1-3 1h-6v-1l1-3c1-2 1-2-2-2h-3c-1-2-2-1-2 1l-2 4c0 2-1 3-3 3-3 0-4-1-2-2v-2l1-2v-2l13-41 3-1 2-1c1-1 2 0 2 1m166-1l2 1h1l2 1 1 1h2l2 1h10l2-1h2l2-2h2l2-1c0-1 9-1 11 1l2 1 1 1h1l2 1h2c3 0 4 1 4 2v2a801 801 0 0 1-1 52c0 1-1 2-3 1l-4-3h-3l-2-1-17 1-2 1h-2l-4 2-5-2-2-1h-1l-3-1a37 37 0 0 0-19 2l-3 1-1 1h-3v-57h4l2-1 1-1h2l1-1h1l2-1h9m-8 3h-2l-2 2-2 1-1 1h1v1h-3c-2-2-2-2-2 0v46h2l3-1 2-1a90 90 0 0 1 20 0l3 1 1 1c2 0 2 0 1-26v-21h-3c-1 2-3 2-4 1l1-1 2-1h-2l-3-2-3-1-1-1h-8m39 0l-4 2h-1l-4 2 1 1c1 1 1 1-1 1h-2l-2-1-2 1v22l1 25 2-1h1l4-2 20 1 2 1h4v-8a71 71 0 0 0-1-17v-13c1-8 1-9-3-9l-2-1-1-1-4-1c-3-2-6-2-8-1m15 5l-3 1c-1-1 0-1 1-2l2 1m-54 0h-4 4m6 0l-1 1c-1 1-3 0-2-1h3m5 0c0 1-1 2-2 1-2-1-2-2 0-2l2 1m26 0l-2 1-2-1h4m6 0l-2 1c-2 0-2-1-1-1h3m5 0l-3 1-1-1h4m-54 10c1 0 0 2-2 2l-1-2h3m6 0l-3 2-1-2h4m6 0c0 1-3 2-4 1s0-1 2-1h2m5 0l-2 2-1-1v-1h3m6 0c1 1-1 2-2 2s-2-1-1-2h3m14 0v2l-1 1-1-1c-2-2-1-3 1-3l1 1m12 0l-3 1h-4c-2 0-4 0-3-1h10m5 0l-2 1-2-1h4m6 0l-3 1c-1-1 0-2 1-2l2 1m-222 9v1l-1 2-1 6 7 2c1 1 3-1 3-2 1-6 0-8-4-8l-3-1h-1m167 1v1l-1 1-1-1c-1-1-1-2 1-2l1 1m12 0l-1 1-2-1h3m32 0l-2 1c-3 0-2-1 1-1h1m-49 0c1 1-1 1-2 1l-1-1h3m12 0c1 1-1 2-3 1l-1-1h4m12 0l-3 1c-2 0-3 0-2-1h5m14 0l-1 2h-2l-1-2h4m4 1l-3-1h2c1 0 2 0 1 1m12 0h-4v-1l4 1m6-1l-3 1 2-1h1m-120 2v3l-1 3 1 2c1 1 2-2 2-3l2-2v-2c2 0 0-2-2-2l-2 1m6 1l1 2v-1l-1-1m-19 1c-1 0 1 3 3 3v-2c-1-1-2-2-3-1m194 0l1 6c0 3 6 7 7 5h4l4-3-1-3c0-2-1-3-2-2h-1l-3 2c-2 1-3 1-5-2-1-3-3-4-4-3m-198 1l1 1h1l1 2 2 2c1 3 3 4 3 3l-4-4v-1l-4-4v1m21 2l-2 4c0 2-2 2-2 2v1l3-3 2-4h-1m23 2v1c1 1 1-2 1-2-1-1-1-1-1 1m2-1l1 5v-2c0-3 0-4-1-3m-13 3l-1 3v1c1 0 2-1 1-3v-1m45-1l-4 1v-1h4m5 0c1 1-2 2-3 1l-1-1h4m6 0l-4 1v-1h4m5 0l-3 1c-1 0-1-1 1-1h2m7 0c0 1-2 2-4 1-1-1-1-1 2-1h2m13 0c1 1-1 2-2 1l-1-1h3m6 0c1 1-1 2-2 1l-2-1h4m6 0l-4 1 2-1h2m5 0l-4 1v-1h4m6 0l-3 1-1-1h4m-129 4v5c1 1 1 0 1-3 0-2 0-3-1-2m31 5l-2 5c0 3-1 3-1-1s2-8 3-4m75 1c1 1 1 1-1 1s-3 0-2-1h3m6 0c2 1 1 1-2 1-2 0-3 0-1-1h2m16-1l1 1c2 0 1 1 0 1l-3-1 2-1m-53 1c1 1 0 1-2 1-1 0-2-1 0-1h2m18 1h-1c-4 1-5-1-2-1 2-1 3 0 3 1m25-1c1 1 0 1-1 1-2 0-3 0-2-1h3m-47 1h-2c-2 0-3 0-2-1l4 1m11-1l-3 1c-1-1 0-1 1-1h2m5 1h-3c-1-1 0-1 1-1l2 1m37-1c0 1 0 2-2 1-1 0-2 0-1-1h3m-115 4l-1 1v-2l1 1m6 6l1 1v-1h-1m2 2v2l1 1v-2l-1-1c0-1-1 0 0 0m-23 4h0c0-1 0-1 0 0m-85 4h1c2 0 8 11 6 12l-1 2v3l-6 5c-1 1-6 2-7 1h-2l-1-1h-1l-3-2-1-3c-3-4-2-10 1-14l2-2 2-1h10m302 0l3 3v1c3 0 3 11 1 14l-1 2-2 2-3 1-1 1h-5l-4-2-1-1c-4-3-5-5-4-13v-3l5-5c2-2 9-1 12 0M7 205c0 3 1 5 2 2l-1-6-1 4m88 0c-3 0-4 0-3 2v5l4 20 1 2v2l2 4v1l1 1 11 20 6 8a134 134 0 0 1 9 9l4 3 1 2 40 20h2l3 1h4l4 1 11 1v-24a304 304 0 0 1 1-36c-1-1-2-2-1-4l1-2-1-3v-3l-1-1h-1c2 0 2-1 2-13a96 96 0 0 1 0-13v-1c1-2 0-2-11-2h-23a60 60 0 0 0-14 0H95m107 1l1 55 1-3v-4l1-2 1-3v-2l1-2v-2l2-4c0-3 5-5 8-2 3 2 4 9 3 10l-2 4v2l-1 2v1l-2 4-1 1v2l-1 2v1l-1 1-1 2v2l-1 1v2l-2 4-1 1v1l-1 2v1l-1 1-1 2v1l-1 2v2l-1 2v2c0 2 2-1 3-3l1-2v-2l1-2 1-1 2-4 1-1v-1l2-4 1-1v-2l2-2v-1l1-1v-2l1-1 1-2 1-1v-1c0-2 1-3 3-3l5-5 1-2c1-1 2-6 0-8v-2l1-4c0-2 0-2 3-4l2-4 5-6 7-4 1-1 5-3 1-1h2c1-2 3-1 2 1l-1 3 7-4 1-1h3v3l-1 3v1l-1 2v1l-1 1-1 2c0 2 0 3-2 4v2l-1 1v2l-2 2c-2 1 0 2 2 1l4-2 3-1h10l3 1h1c2-2 3 0 3 3l-4 8-6 5-4 2-1 1h-2l-2 1h-2l-13 6-5 1h-6l-2 2-4 2a25 25 0 0 0-8 10c-1 1-1 2 1 2l2-2 17-11h1l2-1 3-1h13l2 1v1h2c3 0 3 3 0 5-1 0-2 1-2 3l-2 1-1 1-3 1h-3l-5 1h-5l-4 2h-2l-2-1-1-1h-2l-8 4-11 11-3 4a40 40 0 0 0-4 5l-1 3c0 2 1 2 4 1l4-1h4l4-2h3l2-1h2l8-4h2l3-2 2-1h1l9-6c2 0 4-2 6-4l2-1 21-23 10-17v-2l3-6v-1l1-2 1-3v-2l2-6v-4l2-12-5-1h-99m-45 3l1 1h-7l1-1 2-1 3 1m4 3v1l2 2v2l-3-4v-3l1 2m-10 0l1 1v5l-3-1-3 3h-1v-1l2-3c0-2 4-6 4-4m14 6l-1 2-1-2h2m-7 1v1h-1l-2-1h-2c0-2 3-1 5 0m104 0c-3 1-5 4-5 5 1 1 4 1 5-1 3-2 4-5 3-5l-4 1m-108 0l-1 1-2 1h-1c0-2 2-3 4-2m98 1l-2 2v4l1 4 4-4v-3c0-4-1-5-3-3m-92 2l1 2-1 3v-6c0-1 0-1 0 0v1m-11-1v1c-1 1-1 0-1-1h1m-10 1h1l4 4c0 1-2 1-3-1l-2-2c-1-1-4 0-5 1-2 0-2 0-1 1 2 1 0 6-2 5l-2 1-1 1v-3l2-4 2-2 2-1h5m8 0v2c-2 0-2-1-2-2s1-1 2 0m20 6l-1 8-1 2v-3l1-8v-6c1-1 1 1 1 7m78-4l-1 3c-1 1-1 1 1 5v2c0 1 1 1 2-1l1-4v-2l-1-2v-1h-2m12 4c-2 2-2 2 2 2l3-1c2-3-2-4-5-1m-112 1h-1v-1l1 1m95-1l-2 2v7l1 2c0 2 1 2 3 0s1-7 0-8l-1-1-1-2m-53 1l1 1 2 1 2 2h1l-1 1-1-1h-2l-2-1-3-1c-3 0-4 0-2-1l1-1h4m-27 3v1l-1-3c1-1 1 0 1 2m-21-1l1 1-1 1h-5l-1 1h-1l-3 1 1-1 1-2 8-1m7 2c0 2-1 2-1 1l1-3v2m33-1l-1 1h-1l-1 1-3 2-3 3-2 1-1 2 2 1 1 1 3 1 1 1 2 1c1 0 5 2 4 3s-1 1-3-1l-2-1-3-1h-2l-2-2-2-1h-1l-1-1-4 2-2 2h-1l-2 1h-1l-9 8-1-2v2c0 2 0 4-3 7h-2v-1l1-1 1-2 2-3v-2l1-1h3l1-2c0-2-1-2-2-1 0 1-1 1-1-1 0-1 2-2 3-1l1 1h1l1 1v-4l2-2v-1l1-1h1l-1 1-1 3-1 1h2l4-2h1l2-2c0-2 1-2 2-1h1l1-1 2-1 7-7 2-1h3m72 1c-2 1-4 3-2 3l4 1h5l1-4h-8m-92 2v1l-1 2-1 1v1c-1 2-2 2-2 0l1-1v-1l1-2 1-1v-1l1 1m-18 2v9l-1 2-1 1v2l-2 2 2-6 1-13 1 3m-14 0l-1 1c-1 0-2-1 0-2s1-1 1 1m21 3l-1 4v-6c0-4 1-2 1 2m190 0l-1 2v1l1 1v2l1 2v1l2 4v5l-2-3-1-2v-1l-2-4-2-2-1 3-1 2 1 2 1 6v3h2c4 2 3 4 0 3-5-2-6-3-5-5l1-2-1-1c1-2 0-3-2-1s-2 6-1 7l1 2v1l1 2v3l1 2 4 2c1 2 2 5 1 6l-1 1c0 2-3 4-5 4-3 0-3-1-1-1 3-1 4-3 4-6 0-2 0-3-1-1 0 2-1 2-1 0s-3-5-3-3c-2 3-6 2-6-1v-2l-1-1h-1l-1 2v4l2 4v2l1 2v2c0 3 0 4-1 2s-2 0-2 2l-2 2-1 2-2-1c-2-1-2-1-2-4v-2l-1-2h-2v5l2 6v1l1 2c1 1 0 4-1 4l-1-2c0-4-4-2-4 2l-1 2c-2 0-3-3-3-4v-6h-2c-3 0-2-2 2-7l3-3 2-1 3-3 1-2v-2h1c1 0 3 1 3 3s-1 2-1 0h-2v3h3c1 0 2 1 1 3l-1 2v3c1 1 1 0 1-1l1-1v-2l1-2v-6l-1-2c0-1 0-2-1-1s-3-2-1-3c1-1 1-2-1-3l-1-1-1 1c-1 1-3-1-2-2 1-2 3-3 4-2l3 3 4-4c0-2 1-3 2-3l1-2v-2l1-1 1-2 2-2v-1l1-1 2-4 1-1 1-2 2-5c1-3 3-3 3 0m-125-2l-1 2v1l-1 1v2l-3 7v2l-1 3v2l-3 14-1 13c1 1 2 0 2-2v-1l1-1 1-2v-1l1-2v-2l1-1 1-2v-2l1-1 1-2v-2l1-1 1-2v-2l1-1v-2l1-1 1-2v-2l1-2v-9c-2-2-4-3-5-2m21 1l-1 1c-1 2-1 6 1 8 0 1 2 0 2-2l1-1v-6c-1-1-3-2-3 0m35 0c-3 3-3 7-1 6 2 0 6-6 5-7s-3 0-4 1m-24 0c-2 1-1 4 2 4s5-3 2-4h-4m30 1c-1 3-1 4 3 4 2 0 3 0 4-3 1-1 1-2-1-2h-2c0-1-3-1-4 1m-222 0v3l-1 2c0 1 0 2 1 1h1v6c-2 1 0 6 1 5s3-4 2-6v-4l2 2v1l1 2v1l2 2 2 4 3 3 1 2 2 3 2 4 3 3 8 12-3 3-1 2-2-1-3-3-1 5c1 3 2 3 3 1l1 3v6l-1 4v-2c-1-1-1-2-4-2-1 0-3-1-3-3h2c3 0 3-1 2-2l-1-5v-4l-1-2c0-1-1-2-2-1l-1 1v-8l4 4 4 2c0 2 1 3 2 3v-5l-6-6v-1c-1-3-4-5-4-4l-2 5-1 3-1 2c0 3 0 3-2 1v-6c-1-1-2-1-2-3 0-1 1-2 2-1h3v-7l-1-2-1 2-1 1v2l-2 3v-5l1-2v-6l-1-1h-1v1l-1 1-1 2v2l-3 7c0 3 0 3-1 2h-1v6c-1 1-1-1-2-4 0-4 0-6 2-6l2-1-1-1c2-2 0-8-1-8l-2-4v-2c-1-1-1-2 1-3v-9h3m110 0l-1 1v-1h1m98 1l-3 3v3c-1 1 1 2 2 2 2 0 3-1 3-3l1-2 1-3h-4m-21 2l-3 6h5l1-1c2 0 2-3 1-3l-2-2h-2m14 2l-5 6c0 2 6 2 6-1v-2l1-5-2 2m-107 1l-1 1v-2l1 1m123 1v3c2 1 7-1 6-2 0-2-4-3-6-1m-7 3v3c2 2 5 0 4-2-1-3-2-3-4-1m-17-1l-2 2c-2 0-2 1-2 2l-2 2c-1 3-1 3 1 3s4-3 4-4l1-1v-4m-179 7v4c-1 2-1 1-1-2l-1-2v-5c1-1 2 1 2 5m188-3c-3 3-1 4 3 2 2-1 2-1 1-3-2-1-2-1-4 1m-75-1l-2 2c0 2-1 2-1 1 0-2 2-4 3-3m58 1h-1c-1-1-2 0-4 2-2 1-5 9-5 9l2-2 8-5 1-2c1-2 0-4-1-2m-103 2l-2 2v-2h2m112 1l-1 4c1 2 8-1 6-2v-1c0-2-3-3-5-1m-55 0l-3 4h-1l-1 1-2 1h-3c-2 0-5 1-5 3l-2 2v-1l1-2 1-1v-1l8-2 2-1h2v-1l2-1 1-1m-12 1c2 0 3 0 1 2h-4c-2 2-3 0-1-2h4m46 2l-1 1v1l1-1v-1m-214 2l1 1 2-1-2-1-1 1m223 0v1l-1 1h-1l-2 1-4 6 7-7 3-2h-2m-105 2l-1 1-2 4-1 1v2l-1 2v1l8 1 37-4 4-3c1 1 1 1-1 2l-3 3-4 2h-2l10 2h-9l-41-1v-6l2-4c3-2 1-4-2-2h-3c0 1-2 1-2-1v-1h5l6 1m93-1v1h1l-1-1m-211 2l1 1 1-1c1-1 0-1-1-1l-1 1m311-1v1l-1 2v2l1 2v2l1 1c0 2 1 2 1 0l1-2v-5l-1-2h-1m-102 0l-2 2-4 10v2l-1 2-1 1v1l-1 2-1 1v2c0 1 0 1 0 0l2-2v-1l1-1v-1l4-4 2-11 1-2v-1m37 3c-3 2-2 4 0 3l1-3c0-1 0-2-1 0m-6 0c-1 0-3 2-2 4 0 2 4 0 4-3 0-2 0-2-2-1m10 1c-1 2-1 2 2 2 2 0 3-1 1-2h-3m-85 1h-2 2m69 0h-1l-1 1c-1 1 0 3 2 2l2-3h-2m-68 2h0m60 2l-1 3 5-5c-1-1-2 0-4 2m20-1v1l4 1c0-2-3-3-4-2m-5 1c-1 1 0 2 2 2v-2h-2m-6 1c-2 1-1 2 1 2l1-2h-2m-194 2c0 2 0 3-1 2v-3c1-1 1 0 1 1m189-1l-2 3 3-1 1-2-1-1-1 1m-101 4h4l5 1h-13c-1-1 0-2 1-2l3 1m-87 1v3l-1-1c0-1-1-3 1-2m169 1h-1v2l2-3h-1v1m-5 0v1l1-1h-1c-1 0 0 0 0 0m-42 2c2 1 0 2-2 1h-6c-5 0-6-1-5-2l13 1m41 0v1l1-1-1-1v1m-1 2l-1 1-1 2-2 2v2l4-5v-2m-51 3h-7c-7 0-10 0-7-1l14 1m137 3v5l1 1c0 2 0 2 1 1l2-4-1-2c0-2-1-3-3-1m-216 0a180 180 0 0 0 48 38c2 0 4 3 4 4l-1 2-1-1v2l-1 3-1 5c0 5 0 7-2 6v-18c-1-1-2 1-3 8 0 5-2 5-5 1l-1-2-1-13c-1 0-2 0-2 5v5l-1 3c0 3 0 3-2 3l-1-3v-2c-3 0-5-6-5-11l2-2c2 0 1-3 0-5l-2-1h-1l-1 2v3l-1 4-2 6v-10l1-3c2-3-1-8-3-7l-2 8-2 2c0 2-1 1-1-3l-1-4c-1-1 0-1 1-1h2v-2l-1-4c-3-2-3-2-4 0v3l-1 3v3l-1 3-1 1v-8l1-3 1-4-1-3h-1l-2 5v3l-3 6v-12l-2-1c0 2-1 1-1-1l-1-3v-1c1-1 2-1 4 1l1 2h1c1-2 1-3-3-6l-2-3-1-2v-1h2m126 4h0m75 11v9l1 3v4l1 4-3-2c0-1-1-1-1 1-1 2-6 2-6-1l-1-1c-1-1 0-1 1-5v-3l-1 1h-2l-1 5v2l1 2 1 4c1 2 1 6-1 6h-1v-3c0-6-3-7-4-2 0 2-1 2-2 1 0-3-3-1-3 2 0 1 0 2 3 4l2 3h-3l-3-3v-5c0-5 0-6 3-6l4-2c2-1 2-3 0-4l-2 1a41 41 0 0 1-5 3l-2 2-2 1v3l2 11c1 2 1 5-1 4l-2-5v-4c0-5-1-7-2-7-2 0-2 1-1 4v6l1 5c1 3 1 4-1 4s-3 1-4 3h-3c-1-1-3-3-3-5v-3c-2-2-1-7 2-7l1-1h-4c-2 0-3 4-2 11 1 5 1 8-1 8l-1-1-1-2c-1 3-3 3-5 1-2-1-2-1-2-5 0-5 1-6 5-6l2 1v-2c0-2-2-3-4-1l-2 1c-4 1-5 1-4 7l1 7v5c-2 1-2-1-3-7v-7l-1-1-1-2v12c1 2 0 7-1 7s-2-1-2-3c0-1 0-2-1 0l-2 2-1-1c-3-2-3-2-3-6 0-5 1-6 4-6s4-2 2-3c-1-1-10 2-9 3v9l-1 1-1 3-1 2 1 1 1 2v2c-1 1-2-1-2-3l-2-2c-2 0-3-3-2-5h2l1 1 1-1c0-1 0-3-2-3l-1-5c-1-2-2-3-3-2v14c1 2 0 3-1 4l-1-2c0-2-2-3-2-1-1 2-5-1-6-4v-5l2-3 2-1 2 1 1-1v-2h-2l-3 1h-1l-2-1c-2 0-2 0-2 11 0 9-1 10-2 6l-1-17c-2-1-2-2-1-3l1-4c0-5 4-6 7-4l5 5h-3l-2-2h-1c-1-1-3-1-3 1-1 2 0 4 1 4l35-5v-5l1-5 6 1 3 3-3-1c-1-2-5 1-5 3 0 3 1 4 5 2 2-2 4-2 7-3l2-1 3-1 1-1 24-14 3-3 9-8h4m-5 6c-2 1-2 4-1 6v2l-1 2 1 2 3-4v-5l-1-2c0-2 0-2-1-1m-244 4l1 1 1-1-1-2-1 2m256 1c1 2 0 9-1 9v-2l-1-4c-1-3-1-5 1-5l1 2m-179 8c0 2-1 3-2 3-2 0-1 5 1 5 3 0 5-7 3-9-1-2-2-1-2 1m-15 2c1 3 0 4-1 3v-4c1-1 1 0 1 2m25 3l-1 4c-1 3 0 6 2 4l1-9c-1-1-2-1-2 1m30 1l-1 2c-2 0-2-1-2-4l1-1 1 1 1 2m96 1v1c1 2-1 5-3 5l-2 2c0 2 1 2 3 1 1-2 1-2 2-1 1 2 0 5-2 5v2h2l1-1v-1l1-2v-11h-2m-105 2l6 2 4 2h3l2 1h2l2 1 4 1h3l4 1c5 0 7 2 4 5l-1 2 1 2-1 6v7l-2-2v-11l-3 4h-2v-2c0-1 0-2-2-2h-1v3l1 4v2l1 1v2c-1 1-2-1-2-2l-1-1-1-3v-7c2-3 3-4 5-2 1 1 1 2 2 1l2 1 2-2c0-2 0-2-2-2l-3-1h-3l-3-1c-2-1-3 0-3 3v1h-3c-3 1-4 3-1 3s4 1 4 3v2c2 1-1 7-3 6l-1-1-4-3-1-2v-2l3 2c2 3 3 3 4 2 1-2 1-3-1-3s-3-2-3-3l-1-1v-6h2c3 0 5-1 3-2-10-4-10-3-11 8v7l-2-4v-4h-4c-1 1-1 1-2-1v-7l1-1v-1l-3-6h5m1 5v7c2 2 3 1 3-3s-2-6-3-4m-82 5l2 2h1l1-1-2-2h-1l-1 1m171 0l-1 2c0 2 1 4 2 3l3-4c0-2-4-2-4-1m91 1l1 1 1-1-1-1-1 1m-118 1v5l2 1v-4c0-2-1-3-2-2m9 4v5h2l3-4c0-2-4-3-5-1m-63 3l-1 1v-2l1 1m41 0v5c1 1 2 0 3-1l1-1v-2c0-2-3-2-4-1m83 22c0 2 0 2 2 2s2 0 2-2 0-1-2-1-2 0-2 1"/><path fill="#05252a" d="M178 14l-8 2h-3l-2 1-4 1h-4l-6 2h-2l-4 2h-1l-2 1-3 1h-2l-2 1h-2l-2 2h-3l-2 1v1h-2a190 190 0 0 0-29 16l-2 1-4 3-2 1-2 2-2 1-2 2-3 2a97 97 0 0 0-9 9l-1 1-4 2-11 14-2 2-3 4-3 3-2 4-4 6-2 4h-1l-1 1v2l-1 1-1 2-1 1a70 70 0 0 1-3 6l-1 4c0 2-2 3-2 3v1l-2 2v2l-11 38v4l-1 5-2 16v14l1 9 9 42 2 4 1 3v2l1 1v2l2 4 1 1 2 4v1l1 1v1l2 4 2 2v1l1 2 2 3v1l1 1 2 4 1 1 1 2 2 1 2 4 1 1 4 5 1 2 12 13a97 97 0 0 0 13 12l2 1 1 2h1l2 2 30 19a102 102 0 0 0 17 8h1l4 2h2l2 1h1l4 2h3l3 1 2 1h2l7 2 17 3 56-2 3-1h3l3-1h3l3-1 2-1h3l6-2 2-1 1-1h2l2-1h2l1-1 2-1h1l10-5 5-2 1-1 19-11 2-2a125 125 0 0 0 10-7l20-18 2-3 7-8 3-3 2-4 1-1 1-2a48 48 0 0 0 6-9l1-2 2-2 14-31 2-5 1-1v-2l1-3v-2l2-5v-2l1-3v-3l1-3 3-24v-11a130 130 0 0 0-4-33v-3l-1-2v-3l-1-3-1-2v-2l-1-2v-3l-4-9v-2l-1-1-1-2v-2l-1-1-1-2c-1-1 0 0 0 0l-1-3-2-4-1-1v-1l-1-3-2-2v-1l-1-1v-1l-1-1-1-2-2-2v-2l-1-1-1-2-1-1-1-2-3-3-1-2-2-2a66 66 0 0 0-5-7l-15-15a50 50 0 0 0-11-10l-10-9h-1l-1-1-4-2-5-4h-1l-2-1-2-2-8-3-4-3-2-1h-2l-1-1h-1l-8-4h-2l-4-2h-1l-2-1h-3l-2-1-1-1h-2l-6-2h-2l-6-2h-5l-4-1h-3l-5-1-21-1a605 605 0 0 1-21 0m39 8l51 13 2 1 1 1h1l2 1h1l32 19 4 4 3 1a112 112 0 0 1 13 12l5 5 2 3a97 97 0 0 1 17 21l1 1 3 5c2 2 2 5 2 5l1 1 4 8 3 4v1l1 2v1l1 2v2l2 2v1l1 2 1 3v2l1 1 1 2v2l1 2v2l1 2 1 3v3l1 2v3l3 12a243 243 0 0 1-3 59l-1 3v3l-4 10v3l-3 8-1 1v1l-1 2v2l-1 1v2a74 74 0 0 0-6 12l-2 2v1l-4 6-1 2-11 15a235 235 0 0 1-50 44l-3 2h-1l-2 1-1 1-14 7-30 10h-4l-3 1-4 1h-3l-10 2a271 271 0 0 1-71-6l-7-3h-4l-2-1-1-1-7-2-2-2h-1l-2-1h-1l-1-1-2-1h-1l-5-3h-1l-1-1-5-3h-1l-6-4-1-1h-1l-1-1-3-2-3-3a103 103 0 0 1-18-15l-8-8-3-4-3-3-20-29v-2l-1-1v-1a21 21 0 0 1-4-8 49 49 0 0 1-5-12l-3-6-1-7-1-2v-2l-1-2-1-4v-4l-1-3v-3l-1-3-1-8v-31l8-38 1-2v-3l1-2v-2l2-2v-2l1-1v-2l1-2v-1l2-2 1-4a59 59 0 0 1 7-11l5-9 4-6 2-2 1-2 3-3c2-1 2-3 2-3l1-2 19-19 8-6 1-2h1l2-2 4-2 4-4 37-18h2l5-2 1-1 3-1h2l2-1h3l2-1 26-5h38m30 21l-1 2-1 1-1 2v3h-2l-2-1c-1-1-2 0-2 2s1 4 3 4c1 0 1 2-1 6l-1 2v1l-2 4v2l-1 1v2l-1 2 1 4 1 1c0 3 3 2 3-1v-1l1-2v-2l1-1 1-2v-2l1-2v-2l2-2v-2l1-2h4l6 2 1 1h2l1 1 2 1h2l4 2 4 3-2 4-7-7h-2l-5-1-3 3-2 1v4l1 6 4 4h1l3 1c4 0 5 1 3 3v3l1 1 2 3v-1l2-2v-2l2-2v-2l3-5v-1l2-2 2-5c0-1 7 2 9 4l1 1c2 0 2 2 1 4-4 4-4 5-6 4h-3v3l2 9 1-1h3l2 1 3 3-2 2c-3 3-3 4-2 5 2 1 1 2-2 2h-2v5h2c4 0 4 4 0 4l-4-2h-1l-1-1-1-2v-1l-1-2-2-7c-1 0-2 5-1 7l1 2 3 7 3 3 8-1 1-1v-6c0-4 0-5 5-10l6-7 5-5 2 2a342 342 0 0 0 14 16c1 1 0 4-2 4l-1 1c-1 2-2 0-1-2v-2l-1-2-4-3-2-2c-3-1-8 1-8 4l-1 1-1 4 1 5 1 1 4 3v3h-2v7h1l8-6c1-1 4-1 6 1s2 3-1 5l-3 6c-4 5-4 6-2 7l3-3c0-2 2-5 4-5h1c0-2 6 0 6 2l1 1c1 1 1 5-1 5h-1l-2 1-1 1h-1l-1 1h-2c-2 0-3 6-1 7h2l16-9h5v1l2 4v2l2 4v3c1 3-3 4-5 1-2-5-3-5-5-4l-2 1-3 3-3 6v3l1 2 1 1v1l1 1c1 1 0 1-1 2-2 0-3 1-3 2l-1 2c-2 2 0 4 2 2h2l3-1h3l4-2h4l4-1c3 0 3 0 3 2s1 2 3 0c2-1 2-2 2-3 0-2 2-5 4-5l5-5v-8c-1-1-2 0-4 1l-2 2 1 1v5l-5 4-4-16-1-1v-2l-1-2v-2l-1-3-1-1-1-2v-2l-9-18c-1-1 0 0 0 0l-1-3-3-3-1-3-2-2-3-5-3-3-2-3a205 205 0 0 0-42-35l-4-3h-1l-1-1h-1l-1-1-3-1-6-3-1-1-8-3h-2c-3 0-4-3-3-5 3-4 7-3 11 1l3 2 2 2c0 1 3 4 4 3l-1-3-1-2-8-8c-1-3-10-4-12-2m-46 2l-32 2v1l1 1c0 2 4 3 5 2 3-1 7 1 7 3l-5 3c-2 0-2 2-1 4l1 3 6 6h3l4-1c2-1 4-1 4 2 0 1 1 3 3 3h3c1-2 0-8-1-10V50l4-1c5 1 6 1 5 5v19l1 1c3 4 4 3 4-5l1-7v-5c0-6 1-7 6-5v-4l-1-1-7-1a119 119 0 0 1-11-1m-8 7v3c1 3 0 7-1 7l-3 1-2 2h-2c-2 1-4 0-4-2l1-2c4-1 6-3 5-4l-1-2v-2c-2-2 0-3 4-3h2v2m-45 1h-1l-2 1h-2l-1 1-2 1h-2l-1 1h-2l-1 1-23 12-1 1-3 2-13 10a48 48 0 0 0-8 8l-4 4a171 171 0 0 0-13 13l-3-6 6-7 8-4c2 0 3-2 1-2h-4l-9 4-7 7-1 2v1l2 5 4 2c1 0 2 2 1 4l-2 1 1 2h3l2-1c2-1 3-1 5 1l2 2 5 3 5 4h8v-1l-2-2-3-2-6-5-8-5c-2-1 1-5 10-13l2-3 3-2 1-2 2-2c0-1 2-1 3 1l2 2c1 1 1 1-2 1-4 0-9 4-9 7l-1 1v2l2 6 2 1h10l2-2 2-3c0-1 2-3 3-2h1l3 2 1-1c4 0 4 0 0-5l-9-9-2-3c-2-2-2-3-1-4l5-4 13-7c1 1 0 2-2 3l-4 2c-4 2-3 6 2 9 3 2 3 2 3 4 0 1 1 3 3 3h11l5-6 4-1c4 0 5-1 2-3l-1-2v-1l-1-1-1-2v-1l-1-1-4-7c-2-4-2-5 0-6h2l1-1 2-1c2-1 4 0 5 2l1 5 3 8v2l1 2 4 4c2-1 3-3 2-5l-1-1-1-2v-3l-4-10c-1-3 0-5 2-5h2l1-1v-1l-2-2h-5m-19 15v1l2 3 1 1v2l1 1 1 2c1 2 0 6-3 8l-6 5-3-1 2-4 2-1h1l2-3c0-3-4-3-7-1-4 4-3 3-5 3-1-1-1-3 1-4l1-1 2-1h1l2-2c2-1 2-4 0-4l-1-2 3-3h2m134 6h2l4 5c0 2-9 2-11 1-2-2-2-3 0-6 1-1 4-2 5-1m35 13l2 2c2 1-3 9-5 9l-5-4-1-1 2-2 3-4c1-2 2-1 4 1m-114 5h-4l-8 2h-3l-20 8-1 1h-1l-1 1-9 4-9 8-2 1a159 159 0 0 0-19 19l-5 7v2l-2 2-2 3-1 3-6 12-1 6-2 4v2l-2 7-1 29a40 40 0 0 0 2 11l1 4v3l1 2v2l1 1v1l1 2 1 3v1l1 2 1 1v2l1 2 1 1v1l1 1 2 5 3 3v1l3 4 1 2 1 1 1 2a109 109 0 0 0 42 33l15 6h2l2 1h2l11 3a188 188 0 0 0 41-2 75 75 0 0 1 9-2l4-2h1l2-1h1l1-1h1l4-2 7-3 9-6h1l4-4 2-1a161 161 0 0 0 24-26l3-4 3-6v-1l1-2 1-1 2-4 1-5 2-4v-1l1-1 1-3v-3l1-2 1-3v-4a140 140 0 0 0-3-49v-2l-2-4v-2l-1-2-1-1-2-4v-2l-4-6-1-2v-1l-1-1-9-13a152 152 0 0 0-26-22l-1-1-4-2-2-2-4-2h-1l-2-1-1-1h-1l-2-1h-2l-1-1-4-2h-2l-2-1-13-3h-4l-30-1m-81 7l-1 2v2l-1 1v2l-2 2c0 2-3 2-4 0-3-2-1-8 2-8l1-1h5m92 1l-1 100h-8l-21-1-2 1 1-2h1l-2-2-6-10-2-2v-1l-1-2c-1-1-1-1-1 1-1 1-1 2 1 3l1 2 1 1c1 1 1 2-1 2-2-1-4 1-2 2l1 1 2 3 1 3c-1 1-4-1-4-2h-2c0 1-1 1-1-1s-1-2-1 0l-1 1c-2 0-2-1-1-2v-4l-1 2v2l-1 1 1 3v1c-1 0-2-1-2-3 0-5-1-5-1 0l-1 2c-2 1-3-1-2-3v-2c0-1 3-5 4-4v1c0 3 1 2 1-1l1-5c2 2 3-3 1-5v-14c0-3 1-2 1 5v7l1-7c0-6 1-8 1-2l1 4v3c1 2 2 4 3 3l3-3 1-2 2-3c1-3 3-3 3 0 0 8 2 10 2 3v-4c1 8 1 10 2 9s2-1 2 1c1 2 2 2 2 0s1-2 2-2l2-3v-1l-1-1v-2l1 3c1 4 2 5 2 1s1-5 1-3l1 1v5l-1 1v2l-1 1v1l-1 1 2-1 2-4c0-2 2-3 4-2l2-4v-2l-1-2 2-2 2-3v-1l1-4-1-3v-2a40 40 0 0 0-14-13l-9-4h-2l-4-2a62 62 0 0 0-31 3l-1 1-4 2h-1l-2 1-1 1h-1l-5 4-1 2-3 2-3 3v8l2 2 3 5 1 7c0 6 0 8 1 7v-7c0-6 0-8 2-7v4c0 5 1 6 2 5v-3l1-4v-1l1 1 1 3-1 2v11l1 1v-4l2-14c1-1 2 2 1 3v2l2 10 1-7c0-8 0-8 1-7v3l1 8c0 8 1 9 2 6v-18c1-2 2-1 2 8 0 8 0 9 2 6v-15l7 7v10l-1 2-6 6-1 3h-7c-1 2-1 2-5 3-15 0-31 0-30-2v-5l2-9 1-4v-3l1-2v-2l1-2v-2l1-1 1-2v-1l1-2 1-4 2-3v-1l1-1 3-4 1-3a145 145 0 0 1 23-25l3-3 3-2 6-3 3-3 4-1 1-1 4-2h2l1-1 4-2h2l2-1h1l2-1 3-1h2l2-1h5l9-2h5v2m18-1l3 1h5l3 1 2 1 8 2 2 1h2l4 2h1l1 1 2 1h1l1 1h1l1 1a59 59 0 0 0 13 8l3 3a122 122 0 0 1 29 34v3l4 7v2l1 2v2l1 1 1 2v3l1 3 1 4v1l2 10-1 1 1 2c1 1-1 1-17 1h-87V97h11m101 17c2 4 1 7-3 5l-2-1-3-3c0-4 5-4 8-1m15 5l2 3 3 7 2 3 1 1v2l1 2v1c2 1 1 3-1 4-1 0-2 0-3-2l-2-5-7-5v-1c2 0 2-3-1-4-2-2-2-2 0-5 2-2 3-2 5-1M59 132l-2 1-3 1v2l-1 1-1 3-3 7-2 7-1 3-1 2v2l-1 2v3l-1 2-3 12-1 1c-1 1 0 2 3 2 2 0 3-1 3-3l2-4c0-2 1-2 2-1h3c3 0 3 1 2 2l-1 3v1l3 1 3-1 4-2h1l3-1 3-2h2l1-1c2 0 2-2 0-3h-3l-1 1-6 3c-1 0-3-6-1-6 1 0 2-1 2-4l1-3h8l1-1 2-1c3 0 0-2-5-3l-18-5v-2l3-7 2 1 1 1h1l2 1h2l2 1c11 5 11 5 14 3l2-2-4-2h-1l-1-1-4-1-3-2h-2l-4-2-1-1h-2c-1 0-2-4 0-5 1-1 0-3-1-2m159 0h-2l-2 2h-2l-1 1h-2l-3 1h-1v57h2l1-1 9-3a37 37 0 0 1 18 1l1 1 3 1 2 1 5-2h1l2-1h3l2-1h13l2 1h3l4 2h2l1-2v-52c1-1-1-2-3-2h-3l-2-2h-2l-2-1c-2-2-10-2-11-1l-1 1h-2l-1 1h-2l-4 2h-9l-3-1-1-1h-2l-1-1h-1l-2-1h-9m8 3h2l3 2 3 1h1l-1 1c-2 0-2 1-1 2l3-1 2-1h2l-3 46-2-1h-2a84 84 0 0 0-21 1l-5 2v-47s1-2 2 0h4v-1h-1l1-1 2-1 1-1h1l1-1 4-1 4 1m40 0l3 2h1l3 1c3 1 4 2 3 10l-1 38-3-1h-1l-3-1a55 55 0 0 0-19 1h-2l-2 1h-2v-47h1l4 2c2-1 3-1 1-2v-1h1l3-1 2-2h2c2-2 6-1 9 0m5 4c-2 0-2 1-1 1h3l-2-1m-56 0v1h3l-3-1m6 0c-1 1 2 2 3 1l1-1h-4m5 1l3 1c2-1 1-2-1-2l-2 1m26 0l1 1c2 0 3-1 2-2h-3m6 0l2 1h1l-3-1m5 0l1 1h3l-4-1m-53 10c-1 1 0 2 1 2s3-1 2-2h-3m5 0l1 2c1 1 3-1 3-2h-4m6 0c0 1 1 2 2 1h2l-4-1m5 0l1 2 1 1 1-1 1-2h-3m6 0c-1 1 0 3 1 3s3-2 2-3h-3m14 0v2l1 1 1-1c2-2 2-3 0-3l-2 1m5 0c-1 1 1 1 4 1h3l3-1h-10m12 0c-1 1 0 1 1 1l2-1h-3m6 0v1c1 1 3 0 3-1h-3M55 160c4 1 5 2 4 8 0 2-2 3-3 2h-1l-6-2 1-6 1-1 1-2 3 1m161 0v1l1 1 1-1c1-1 1-1-1-1h-1m11 0l1 1h2c0-1-1-2-3-1m32 0l-1 1h4l-1-1h-2m-49 0l2 1c2-1 1-1-1-1h-1m11 0l1 1c2 0 4 0 3-1h-4m11 0c-1 1 0 1 2 1l3-1h-5m15 0l2 2 2-2h-4m5 0h0m11 0l1 1 3-1h-4m7 0v1l3-1h-3m-112 2v1l-1 1-1 2v1c0 1-2 3-3 2v-4c0-3 1-4 3-4l2 1m3 2h-1l1-1v1m-19 0l1 3-3-3h2m195 1l2 2c1 3 3 3 5 2l2-2h1c1-1 2 0 2 2l1 3-4 3-3 1c-2 1-7-3-7-5l-1-1-1-6c1-1 2-1 3 1m-198 1l1 2 1 1 3 4-3-2-2-3-1-2c0-1 0 0 0 0l-1-1 2 1m19 3l-2 2v1l-2 3v-2l1-2 2-2v-1l1-1v2m23-1l-1 3v-3h1m3 3l-1 3v-6l1 3m-15 3l-1 1v-1l1-2v-2 5m41-5v1h4l-4-1m5 0l1 1c1 1 4 0 3-1h-4m6 0v1h4l-4-1m5 1h3c2 0 1-1-1-1l-2 1m6 0l3 1 1-1h-4m15 0v1l3-1h-3m5 0l2 1c1 0 3-1 2-2l-4 1m6 0h0m5 0h0m6 0h0m-124 5v3-3m28 3v5l1-3v-4l-1 2m74 1c-1 1 0 2 2 2s2-1 1-2-2-1-3 0m6 0c-2 1-1 2 1 2 3 0 4-1 2-2h-3m17 0c-1 1 0 2 2 2 2-1 2-2 0-2h-2m-54 0c-1 1-1 2 1 2s2-1 2-2h-3m17 0c-3 1-1 2 2 2l2-1-4-1m26 0c-2 1-1 2 1 2s2-1 1-2h-2m-49 1l2 1 2-1h-4m12 0l2 1 1-1h-3m5 0l2 1c2-1 2-2 0-2h-2m37 0c-1 1 0 1 1 2 2 0 2-1 2-2h-3m-113 3v3l1-2-1-1m8 8l-1-1h1v1m2 2v2l-1-1v-3l1 2m-23 4c-1 1-1 0-1-1h1v1m-96 3l-1 1-2 1-1 1c-3 4-4 10-1 14l1 2 3 3h1l1 1h2c1 1 6 0 7-1h1l4-4 2-4v-3c2-1-4-11-6-11l-1-1-10 1m301 0l-4 3-2 2v3c-1 8 0 10 4 13l1 1 2 1h8l3-2 2-1 1-2c3-3 2-14 0-14l-1-1c-2-3-12-6-14-3m-236 5h30a68 68 0 0 1 12 0h35c11 0 12 0 11 1v15c0 12 0 12-2 12l1 1h1v3l1 4-1 2c-1 1 0 3 1 3l-1 3v57h-11l-8-2h-3l-4-2h-3l-1-1h-2l-24-12-10-8-12-12-3-4-3-3-1-2-3-3-2-4a67 67 0 0 1-6-13l-2-5v-2l-1-2v-1l-2-6v-2l-2-11v-5c-1-1 2-2 7-2l8 1m110 0l37-1a2229 2229 0 0 1 51 2v6l-2 12-1 3v3l-5 12v1l-5 10-1 1-4 6-1 2-3 4a144 144 0 0 1-28 25l-3 2-3 1-1 1-5 2-4 2h-2l-2 2h-2l-2 1h-2l-3 1h-2l-2 1-4 1h-8l1-4 8-10 2-1 1-2 7-6 8-4h3l2 1 1 1 1-1 2-1h2l5-1h5l3-1 2-1h2l1-2 3-3c3-2 3-4 0-4l-2-1-1-1-22 2-2 2h-1l-15 10v-2l12-12 2-1 6-1h5l2-1 1-1 4-2h1l3-1 4-2h2l2-1h1l6-3 4-5 4-7c0-4-1-5-3-3h-1l-5-2h-5l-8 3h-2c-2 1-4 1-2-1l2-2v-1l1-2v-2c2 0 2-1 2-3l1-2 1-1v-2l1-1v-1l1-3v-3l-2-1-2 1v1c-1 0-5 1-6 3h-1v-3c1-1 0-2-2-1l-1 1h-1l-5 4h-1l-2 2-5 3c-2 1-5 4-5 6l-2 3c-3 3-3 3-3 5l-1 3v11l-3 3-3 4c-2 0-3 1-3 2l-1 2v1l-1 2-1 1v1l-1 1-1 2v1l-1 1v1l-1 1-3 6c-1 0 0 0 0 0l-3 6-1 1v2l-1 3-3 3v-5l1-2 1-1v-2l1-1v-1l1-2 1-1v-1l2-4v-2l2-2v-2l1-2v-1l1-2 1-1v-2l1-1 1-2v-2l2-4v-2l1-1v-2c2-2 0-9-2-11-3-2-9-1-9 3v1l-1 2v2l-2 5v2l-1 3v3l-2 6v-16a878 878 0 0 1 0-41c-1-1 0-1 7-1h8m-63 2l-2 1h-2l3 1 2-1h3l-4-2v1m5 2l1 3v1l3 2-1-1-1-2v-1l-2-2m-11 2l-2 3-2 5h1c0-1 3-4 4-3h2v-5l-1-1-2 1m15 5c-1 2 0 3 1 3v-3c0-2-1-1-1 0m-10 1h1l4 2-3-3-2 1m111 0l-2 5c-2 2-6 1-5-1 2-3 5-5 7-4m-115 1v1l1 1 2-2h-3m105 4l-1 3-4 4v-8l1-2c3-2 3-2 3 3m-95-2v5c1 1 1-1 1-2v-3h-1m-12 0l1 1 1-1h-2m-14 1l-3 3c-1 0-2 0-2 2v1l-1 4 2-1 1-1c3 0 5-4 3-5v-2h5l1 1 2 1c0 2 2 2 2 1l-4-4h-6m12 0c-1 2 0 2 1 2v-2h-1m20-1v15l1-1-1-14m81 3l1 1v2l1 2-1 4c-2 2-2 3-2 1l-1-2c-2-4-2-3-1-5 1-3 4-5 3-3m15 3c3 0 0 3-3 3s-4 0-2-2 3-2 5-1m-118 2l1 1v-2l-1 1m98 1v2c2 0 1 6 0 7-1 2-3 2-3 0v-10l2-1 1 2m-58 0l-2 1 2 1h3l2 1h2l1 1 2-1h-1l-2-1-2-2h-5m-24 1v2l1-1-1-1m-28 1l-3 3h3l2-2h5l1-1h-5l-3 1m14-1v3l1-2-1-1m31 0l-1 1h-1l-1 1c-2 0-7 5-7 7l-1 1h-3l-3 3-6 3h-2l1-2 2-2v-1h-1l-1 1-1 2c-1 1-2 2-1 3l1 1-1 1v-1l-1-1h-2c0-2-2-1-2 1h1c1-1 1-1 1 1l-1 3c-1 1-1 1-1-1h-2v1l-2 5-2 2v1l-1 1c0 2 1 2 3 0 2-3 3-4 3-7l1-2v3l9-9h1l2-1h1l1-1h1l4-2h1l2 1 1 1 3 1 2 1h2l3 2 3 1-5-4-1-1h-2l-3-1-1-2-2-1 6-6 3-2h1l1-1v-1h-1m82 1l-1 4-5 1-5-2 3-3h8m-101 1v1l-1 2-1 1v1l-1 2c0 1 1 1 1-1l2-2v-1l1-2-1-1m-18 1l-1 12v1l-2 5 2-2v-2l1-1v-2c2-1 2-12 0-12v1m-14 1v2l1-1c0-2 0-2-1-1m21 2v6l1-4c0-4-1-6-1-2m189 1l-1 1-1 3-2 2v2l-1 1-2 4-1 1v1l-2 2-3 7-3 3-2 3-1 2-2-1-1-2c-1-1-3-1-4 1s1 3 2 2l1-1 1 1c2 1 2 2 1 3-2 2-1 5 1 3l1 1 1 2v6l-1 2v2l-1 1c0 1 0 2-1 1l-1-1 1-2v-5h-3v-3c1-1 1-1 2 1 0 1 1 1 1-1l-3-3-2 2v2l-1 2c-1-1-2 0-2 1l-2 1-1 1-2 3c-4 5-5 7-2 6h2v6c0 1 1 5 3 5l1-3c0-4 3-6 4-2l1 2c1 0 2-3 1-4l-1-1v-2l-2-6v-5c1-1 1-1 2 1l1 1v3c0 2 0 2 2 3l1 1 2-1 2-3c0-2 1-3 2-1s1 0 1-2v-3l-1-1-1-2v-2l-1-3v-4l1-2h1l1 1v2c0 4 4 4 6 1 0-2 3 1 3 3s1 3 1 1c1-2 1-2 1 1 0 2-1 4-4 5-3 0-2 1 1 1 2 0 5-2 5-4l1-1-1-6h-2l-2-2-1-2v-2l-1-2v-2l-1-2c-2-1-1-5 1-7s3-1 2 1v3c-1 2 0 3 5 5 3 1 4-1 0-2l-2-1v-3l-2-8 2-4 2 2 1 2 1 1v2l1 1c0 2 1 3 2 3v-5l-1-2-1-1v-2l-2-4v-6l-1 1m-120 0c2 1 2 2 2 6v4l-1 2v2l-3 7v2l-2 2v3l-1 2-1 1v2l-1 2-1 1v1l-1 2v2l-2 2v1c0 2-1 3-2 2v-3l1-5v-5l1-4v-3l2-6v-3l1-2v-3l1-2 3-9c1-2 2-2 4-1m21 1v5l-1 2c0 1-1 2-2 1-2-2-2-6-1-7l1-2c0-1 2-1 3 1m36-2l-2 7h-4c-1-2 4-9 6-7m-24 1c2 1 2 3 1 4-2 1-6-1-6-2l3-2h2m31 0h1c2 0 2 2 0 5-2 1-6 0-6-1 0-3 3-6 5-4m-229 1v9c-2 1-2 2-1 3v2c0 2 0 4 2 4 1 0 3 6 1 8v1c1 1 1 1-2 1l-1 6c0 3 1 5 2 4v-6h1c0 1 1 1 1-2l1-2v-1l2-4v-2l1-2 1-1v-1h1l1 1v4l-1 2v7s2-1 2-3v-2l1-1c0-2 0-3 1-2l1 2v7h-3c-2-1-2-1-2 1s1 2 2 3v6c2 2 2 2 2-1l1-2 3-8 9 11v5c-1 1-1-1-2-3l-2-1-5-5v8l1-1c1-1 2 0 2 1v6l2 5c1 1 0 2-2 2l-2 1 3 2c2 0 3 1 3 2l1 2v-5l1-5c-1-3-1-4-2-2 0 2-2 1-2-2l1-5 3 3 2 1v-2c0-1 1-2 3-2s1 0 0-1v-1l-1-2-2-2-2-4-2-2-3-4-2-4c0-2-2-3-2-3l-1-2-2-1-2-4-2-2-1-2v-1l-1-2-1-1v-1l-1-1v4c1 2 0 6-2 7s-3-5-2-6v-6h-1l-1-1 2-2v-3h-2m112 0v1l1-1h-1m102 1v3l-1 2c0 2-2 3-3 3-2 0-4-1-3-2l2-5 1-1h4m-23 3l2 1v3l-2 1h-4l2-6 2 1m14 1l-1 3v3c0 2-6 3-6 0 0-1 5-7 7-7v1m-110 1v1c1 1 1 0 1-1h-1m129 1c2 1 2 2 1 3-3 2-6 1-6-1 0-3 3-4 5-2m-8 2c3 3 0 7-3 4v-3c2-2 2-2 3-1m-21 4v1c0 2-3 4-4 4-2 1-2 0-1-2l1-3 2-2 3-2v2l-1 2m-180-2v5l1 2c0 3 0 4 1 3 1-3-1-12-2-10m194 1v3c-5 2-7 1-4-2 2-2 2-2 4-1m-81 1v2l1-1v-1l1-1c-1-1-1-1-2 1m61 0v2l-1 2-4 2-1 1-3 2-2 2c0-1 3-8 5-9 2-2 3-3 4-2h2m-106 2v2l2-2h-2m118 0l1 2v1c2 2-5 4-6 2l1-4c2-2 3-2 4-1m-60 2l-2 1-1 1h-1l-2 1-4 1c-3-1-4 0-4 1l-1 1v1l-1 2v1l2-2c0-2 2-3 5-3h3l1-1 2-1 4-4c0-1-1-1-2 1m-15 0c-1 2 0 3 2 2h1c1 1 2 1 3-1 1-1 1-1-1-1l-3-1-2 1m51 2l-1 1v1h-1l1-1v-1l1-1v1m11 2l-3 2-7 7 4-6 2-1 1-1h1v-1h2m-118 2c0 1 2 2 3 1h2c3-2 5 0 2 2l-1 2v1l-1 4v3l44-2 2-1 3-3c2-1 2-1 1-2l-4 3-2 1h-1l-4 2h-38v-1l1-2v-2l1-2 1-1v-1l2-2c2-1 0-1-5-1h-6v1m105-1l-1 1v-1h1m101 2l1 2v4l-1 3h-1l-1-1v-2l-1-3v-1l1-2 1-1 1 1m-103 1l-1 2v2l-2 8-5 7v1l-2 2c0 1 0 1 0 0v-1l1-1v-1l1-2v-1l1-2 1-1 1-2v-3l1-2v-1l2-4 2-2v1m39 3l-1 2c-2 1-3 0-2-2s3-3 3 0m-6 0c0 3-4 6-4 3-1-1 1-3 2-4 2-1 2-1 2 1m11 0c2 2 1 3-1 3-3 0-3 0-2-2s2-2 3-1m-90 1l2 1v-1h-2m73 0l-2 4c-1 1-3-1-2-2l2-2 2 1m-70 1h0c0-1 0 0 0 0m64 0l-5 5 1-3c2-2 3-3 4-2m19 2c2 1 1 2-1 1h-2c-1-2 2-2 3-1m-6 0v2c-2 0-3-1-2-2h2m-6 2l-1 1c-2 1-3 0-1-2 2-1 2-1 2 1m-197 0v3c1 1 1 0 1-1 0-2 0-3-1-2m192 0v3h-4l3-3h1m-107 4l1 1 12 1-5-2h-8m-84 1l1 4 1-2-2-2m171 0l-2 3 1-1v-1l1-1m-5 1v1l-1-1h1m-56 1c-1 1 0 2 5 2h6c2 1 4 0 2-1l-13-1m55 1l-1 1v-2l1 1m-2 2v2l-1 1c0 2-3 5-3 4v-1l4-6h1m-66 3h0m154 4l1 2-2 4h-1l-1-2c-1-2 0-6 2-6l1 2m-221-1v1l1 2 2 3c4 3 4 4 3 6l-1 1-1-3c-2-2-3-2-4-1v2l1 2c0 2 1 3 2 2h1v12l2-3 1-3v-3l2-5h1l1 3-2 7v9l1-2 1-3v-3l2-6c0-2 1-2 3 0l1 4v2h-2c-1 0-2 1-1 2l1 4c0 3 1 4 1 2l2-2 2-7c2-2 5 3 3 6l-1 3v10l2-6 1-4v-3l1-2h1l2 2c2 1 2 4 0 4l-1 2c-1 5 1 11 4 11v2c0 2 1 2 2 3l2-6v-4c0-5 1-6 2-5l1 2v10l1 3c3 4 5 3 5-2 1-7 2-9 4-8l-1 11v7c2 1 3-1 3-6v-5l1-2v-3l1 1h1v-1c0-2-2-5-4-5l-3-1-2-2h-1l-1-1-3-1c-2 0-3-3-4-3l-2-2h-1l-13-10-20-18m129 5l-1-1h1v1m72 10h-1l-9 8-2 1-2 2-2 1-3 2-2 2-8 4-2 2-13 6-7 2c-3 2-5 2-5-1s5-5 6-3h3l-2-2h-1c-1-1-6-2-7-1v9l-7 2-2 1-3 1h-4l-4 1-15 1c-1-1-2-2-1-4 0-2 1-3 3-2l3 3h2l-4-5c-3-3-7-1-7 4l-1 4c-1 1-1 2 1 3v2l1 15c1 4 1 2 1-7 0-10 0-10 2-10l2 1h2l3-1h2v1l-1 2-3-1-2 1-1 3v5c1 3 4 5 5 3 1-1 3 0 3 2l1 1c1 0 2-2 1-3l-1-14c1-1 3 0 3 2l2 4c1 1 2 3 1 4v1l-1-1h-2c-1 2 0 5 2 5l1 2 3 3-1-3v-1l-1-1 1-2 1-3 1-1v-9c-1-1 8-4 9-3s0 3-2 3c-6 0-6 9-1 12l1 1 2-2c1-2 1-2 1 0s1 3 2 3 2-5 1-7v-12l1 2 1 1v7c1 6 1 8 3 7v-5l-1-7c0-6 0-6 4-7l2-1c2-2 4-1 4 1v2l-2-1c-4 0-5 1-5 6 0 4 0 4 2 5 2 2 4 2 5-1l1 2 1 1c2 0 2-3 1-8-1-7 0-11 2-11h4l-1 1c-3 0-4 5-2 7v3c0 2 2 4 3 5h3l4-3c2 0 2-1 1-4l-1-5v-6c-1-3-1-4 1-4 1 0 2 2 2 7v4l2 5c2 1 2-2 1-4l-1-3v-3l-1-5v-3l4-2 2-2 3-2 2-1c2 1 2 3 0 4l-4 2c-3 0-3 1-3 6v5l3 3h3l-2-3c-3-2-3-3-3-4 0-3 3-5 3-2 1 1 2 1 2-1 1-5 4-4 4 2v3h1c2 0 2-4 1-6l-1-4-1-2v-2l1-4 2-1 1-1v3c-1 4-2 4-1 5l1 1c0 3 4 3 6 1 0-2 1-2 1-1s2 3 3 2 0-2-1-4v-4l-1-3v-9l-2-1m-1 8v7l-3 4v-4l1-1v-7c1-1 2-1 2 1m9 3v4l1 4v2c1 0 2-7 1-9 0-2-2-2-2-2m-175 9c2 2 0 9-3 9-2 0-3-5-1-5 1 0 2-1 2-3s1-3 2-1m-18 1v5c1 1 2 0 2-3l-2-2m28 5l-1 9c-2 2-3-1-2-5l1-4h2m25 0c0 2 0 4 2 4 1 0 2-3 0-4l-1-1-1 1m101 3v11l-1 1v1l-1 2h-2v-3c2 0 3-2 2-4 0-1-1-1-2 1-2 1-3 1-3-1l2-2c2 0 4-3 3-5-1-1 0-2 1-2l1 1m-112 1l1 3 1 1 1 3c0 1 0 0 0 0l-1 2v7c1 2 1 2 2 1h4v3c0 2 1 5 2 4v-6c1-12 1-12 11-8 1 0 0 2-3 2h-2v5l1 2 3 3c2 0 2 1 1 2-1 2-2 1-4-1l-3-2v2l1 1c0 2 3 4 4 4h1c2 1 5-4 3-5v-2c0-2-1-3-4-4-3 0-2-2 1-2h3v-1c0-3 1-4 3-3l3 1h3l3 1 2 1c0 2-1 3-2 2h-2l-2-1c-2-2-3-1-5 2v7l1 3 3 3v-2l-1-1v-3l-1-3v-3h1c2 0 2 0 2 2v2c1 1 2 1 2-1l3-3v11l2 2v-7l1-7c1-1 0 0-1-1l1-3c3-3 1-4-4-4l-7-2h-4l-2-1h-2l-2-1-3-1h-2l-2-1-6-2-5-1m8 6c2 1 1 8-1 8s-3-9 0-9l1 1m91 6l-3 4c-1 1-2-2-2-3l1-2c0-1 4-1 4 1m-29 2v5l-2-2v-4c1-1 2-1 2 1m11 2v3c-2 3-3 3-4 2s-1-3 0-3v-2h4m-68 3v2l1-1-1-1m47 2l-1 1-1 2c-2 2-4 1-4-2s4-4 5-1"/></svg>